<svg xmlns="http://www.w3.org/2000/svg" xmlns:xlink="http://www.w3.org/1999/xlink" width="500" zoomAndPan="magnify" viewBox="0 0 375 374.999991" height="500" preserveAspectRatio="xMidYMid meet" version="1.2"><defs><clipPath id="c88e3b6fb2"><path d="M 2.261719 155 L 33 155 L 33 219 L 2.261719 219 Z M 2.261719 155 "/></clipPath><clipPath id="2bfa20301a"><path d="M 34 148 L 66 148 L 66 229.71875 L 34 229.71875 Z M 34 148 "/></clipPath></defs><g id="2ceecd2d55"><g style="fill:#ffffff;fill-opacity:1;"><g transform="translate(100.50038, 189.096894)"><path style="stroke:none" d="M 5.9375 0.078125 L 4.71875 0 L 4.1875 -0.078125 L 2.8125 0 L 2.359375 -0.375 L 2.359375 -1.828125 L 2.59375 -2.28125 L 2.515625 -2.8125 L 2.75 -3.890625 L 2.75 -4.34375 L 2.96875 -5.40625 L 3.203125 -6.546875 L 3.421875 -7.546875 L 3.5 -8.078125 L 3.734375 -8.984375 L 3.8125 -9.53125 L 3.890625 -9.984375 L 4.1875 -11.734375 L 4.421875 -12.1875 L 4.5 -13.1875 L 4.578125 -13.71875 L 4.71875 -14.171875 L 5.03125 -15.171875 L 5.109375 -15.625 L 5.1875 -16.53125 L 5.1875 -16.921875 L 5.5625 -17.671875 L 5.5625 -18.515625 L 5.71875 -18.96875 L 5.71875 -19.515625 L 5.9375 -19.96875 L 6.015625 -21.109375 L 6.25 -22.703125 L 6.484375 -23.234375 L 6.546875 -23.859375 L 6.625 -24.921875 L 6.78125 -25.453125 L 6.859375 -25.90625 L 7.015625 -26.4375 L 7.09375 -26.90625 L 7.3125 -27.96875 L 7.390625 -28.578125 L 7.546875 -29.71875 L 7.765625 -30.9375 L 8 -31.921875 L 8 -32.84375 L 8.078125 -33.828125 L 8.234375 -34.375 L 8.453125 -34.90625 L 8.53125 -35.890625 L 8.609375 -36.34375 L 8.921875 -37.5625 L 8.984375 -38.40625 L 8.921875 -38.71875 L 9.140625 -39.703125 L 9.21875 -40.15625 L 9.296875 -41.53125 L 9.453125 -42.140625 L 9.671875 -43.203125 L 9.90625 -43.890625 L 9.984375 -44.8125 L 10.140625 -45.34375 L 10.140625 -45.953125 L 10.28125 -46.484375 L 10.359375 -47.015625 L 10.359375 -47.46875 L 10.515625 -48.015625 L 10.828125 -49.234375 L 10.890625 -49.765625 L 10.96875 -50.375 L 11.203125 -51.4375 L 11.28125 -51.875 L 11.359375 -52.328125 L 11.515625 -52.859375 L 11.71875 -53.796875 L 11.796875 -54.328125 L 12 -55.078125 L 12.078125 -55.625 L 12.234375 -56.359375 L 12.453125 -57.140625 L 12.53125 -57.671875 L 12.609375 -58.109375 L 12.765625 -58.953125 L 12.84375 -59.390625 L 13 -60.046875 L 13.078125 -60.59375 L 13.234375 -61.234375 L 13.453125 -62.09375 L 13.515625 -62.546875 L 13.59375 -62.984375 L 13.75 -63.515625 L 13.828125 -63.96875 L 13.984375 -64.5 L 14.0625 -65.046875 L 14.21875 -65.484375 L 14.296875 -66.03125 L 14.453125 -66.46875 L 14.671875 -67.40625 L 14.75 -67.84375 L 14.828125 -68.390625 L 14.984375 -68.953125 L 15.0625 -69.390625 L 15.21875 -69.84375 L 15.296875 -70.484375 L 15.453125 -71.09375 L 15.671875 -71.9375 L 15.75 -72.375 L 15.828125 -73.03125 L 15.984375 -73.46875 L 16.0625 -74.015625 L 16.21875 -74.640625 L 16.296875 -75.078125 L 16.453125 -75.609375 L 16.671875 -76.609375 L 16.75 -77.046875 L 16.828125 -77.484375 L 16.984375 -78.03125 L 17.0625 -78.484375 L 17.21875 -79.125 L 17.296875 -79.671875 L 17.453125 -80.109375 L 17.671875 -81.046875 L 17.75 -81.484375 L 17.828125 -82.03125 L 17.984375 -82.578125 L 18.0625 -83.109375 L 18.21875 -83.640625 L 18.296875 -84.078125 L 18.453125 -84.609375 L 18.671875 -85.546875 L 18.75 -85.984375 L 18.828125 -86.515625 L 18.984375 -87.046875 L 19.0625 -87.578125 L 19.21875 -88.015625 L 19.296875 -88.546875 L 19.453125 -89.078125 L 19.671875 -90.015625 L 19.75 -90.453125 L 19.828125 -90.984375 L 19.984375 -91.421875 L 20.0625 -91.96875 L 20.21875 -92.5 L 20.296875 -93.03125 L 20.453125 -93.5625 L 20.671875 -94.5 L 20.75 -94.9375 L 20.828125 -95.5 L 20.984375 -96.03125 L 21.0625 -96.46875 L 21.21875 -97.09375 L 21.296875 -97.53125 L 21.453125 -98.078125 L 21.671875 -99.015625 L 21.75 -99.453125 L 21.828125 -99.90625 L 21.984375 -100.453125 L 22.0625 -100.890625 L 22.21875 -101.421875 L 22.296875 -101.96875 L 22.453125 -102.40625 L 22.671875 -103.359375 L 22.75 -103.796875 L 22.828125 -104.234375 L 22.984375 -104.78125 L 23.0625 -105.21875 L 23.21875 -105.765625 L 23.296875 -106.296875 L 23.453125 -106.84375 L 23.671875 -107.796875 L 23.75 -108.234375 L 23.828125 -108.765625 L 23.984375 -109.203125 L 24.0625 -109.75 L 24.21875 -110.375 L 24.296875 -110.8125 L 24.453125 -111.359375 L 24.671875 -112.3125 L 24.75 -112.75 L 24.828125 -113.1875 L 24.984375 -113.734375 L 25.0625 -114.171875 L 25.21875 -114.71875 L 25.296875 -115.15625 L 25.453125 -115.703125 L 25.671875 -116.640625 L 25.75 -117.078125 L 25.828125 -117.609375 L 25.984375 -118.046875 L 26.0625 -118.59375 L 26.21875 -119.21875 L 26.296875 -119.65625 L 26.453125 -120.203125 L 26.671875 -121.140625 L 26.75 -121.578125 L 26.828125 -122.015625 L 26.984375 -122.5625 L 27.0625 -123 L 27.21875 -123.53125 L 27.296875 -124.078125 L 27.453125 -124.609375 L 27.671875 -125.546875 L 27.75 -125.984375 L 27.828125 -126.515625 L 27.984375 -126.953125 L 28.0625 -127.5 L 28.21875 -128.125 L 28.296875 -128.5625 L 28.453125 -129.109375 L 28.671875 -130.046875 L 28.75 -130.484375 L 28.828125 -131.03125 L 28.984375 -131.46875 L 29.0625 -132.015625 L 29.21875 -132.640625 L 29.296875 -133.078125 L 29.453125 -133.625 L 29.671875 -134.5625 L 29.75 -135 L 29.828125 -135.4375 L 29.984375 -135.984375 L 30.0625 -136.421875 L 30.21875 -136.953125 L 30.296875 -137.5 L 30.453125 -138.03125 L 30.671875 -138.96875 L 30.75 -139.40625 L 30.828125 -139.84375 L 30.984375 -140.390625 L 31.0625 -140.828125 L 31.21875 -141.375 L 31.296875 -141.90625 L 31.453125 -142.4375 L 31.671875 -143.375 L 31.75 -143.8125 L 31.828125 -144.34375 L 31.984375 -144.78125 L 32.0625 -145.328125 L 32.21875 -145.953125 L 32.296875 -146.390625 L 32.453125 -146.9375 L 32.671875 -147.875 L 32.75 -148.3125 L 32.828125 -148.75 L 32.984375 -149.296875 L 33.0625 -149.734375 L 33.21875 -150.265625 L 33.296875 -150.8125 L 33.453125 -151.34375 L 33.671875 -152.28125 L 33.75 -152.71875 L 33.828125 -153.25 L 33.984375 -153.6875 L 34.0625 -154.234375 L 34.21875 -154.859375 L 34.296875 -155.296875 L 34.453125 -155.84375 L 34.671875 -156.78125 L 34.75 -157.21875 L 34.828125 -157.65625 L 34.984375 -158.203125 L 35.0625 -158.640625 L 35.21875 -159.171875 L 35.296875 -159.71875 L 35.453125 -160.25 L 35.671875 -161.1875 L 35.75 -161.625 L 35.828125 -162.15625 L 35.984375 -162.59375 L 36.0625 -163.140625 L 36.21875 -163.765625 L 36.296875 -164.203125 L 36.453125 -164.75 L 36.671875 -165.6875 L 36.75 -166.125 L 36.828125 -166.65625 L 36.984375 -167.09375 L 37.0625 -167.640625 L 37.21875 -168.265625 L 37.296875 -168.703125 L 37.453125 -169.25 L 37.671875 -170.1875 L 37.75 -170.625 L 37.828125 -171.0625 L 37.984375 -171.609375 L 38.0625 -172.046875 L 38.21875 -172.578125 L 38.296875 -173.125 L 38.453125 -173.65625 L 38.671875 -174.59375 L 38.75 -175.03125 L 38.828125 -175.5625 L 38.984375 -176 L 39.0625 -176.546875 L 39.21875 -177.171875 L 39.296875 -177.609375 L 39.453125 -178.15625 L 39.671875 -179.09375 L 39.75 -179.53125 L 39.828125 -180.0625 L 39.984375 -180.5 L 40.0625 -181.046875 L 40.21875 -181.671875 L 40.296875 -182.109375 L 40.453125 -182.65625 L 40.671875 -183.59375 L 40.75 -184.03125 L 40.828125 -184.46875 L 40.984375 -185.015625 L 41.0625 -185.453125 L 41.21875 -185.984375 L 41.296875 -186.53125 L 41.453125 -187.0625 L 41.671875 -188 L 41.75 -188.4375 L 41.828125 -188.96875 L 41.984375 -189.40625 L 42.0625 -189.953125 L 42.21875 -190.578125 L 42.296875 -191.015625 L 42.453125 -191.5625 L 42.671875 -192.5 L 42.75 -192.9375 L 42.828125 -193.375 L 42.984375 -193.921875 L 43.0625 -194.359375 L 43.21875 -194.890625 L 43.296875 -195.4375 L 43.453125 -195.96875 L 43.671875 -196.90625 L 43.75 -197.34375 L 43.828125 -197.875 L 43.984375 -198.3125 L 44.0625 -198.859375 L 44.21875 -199.484375 L 44.296875 -199.921875 L 44.453125 -200.46875 L 44.671875 -201.40625 L 44.75 -201.84375 L 44.828125 -202.28125 L 44.984375 -202.828125 L 45.0625 -203.265625 L 45.21875 -203.796875 L 45.296875 -204.34375 L 45.453125 -204.875 L 45.671875 -205.8125 L 45.75 -206.25 L 45.828125 -206.78125 L 45.984375 -207.21875 L 46.0625 -207.765625 L 46.21875 -208.390625 L 46.296875 -208.828125 L 46.453125 -209.375 L 46.671875 -210.3125 L 46.75 -210.75 L 46.828125 -211.1875 L 46.984375 -211.734375 L 47.0625 -212.171875 L 47.21875 -212.703125 L 47.296875 -213.25 L 47.453125 -213.78125 L 47.671875 -214.71875 L 47.75 -215.15625 L 47.828125 -215.6875 L 47.984375 -216.125 L 48.0625 -216.671875 L 48.21875 -217.296875 L 48.296875 -217.734375 L 48.453125 -218.28125 L 48.671875 -219.21875 L 48.75 -219.65625 L 48.828125 -220.09375 L 48.984375 -220.640625 L 49.0625 -221.078125 L 49.21875 -221.609375 L 49.296875 -222.15625 L 49.453125 -222.6875 L 49.671875 -223.625 L 49.75 -224.0625 L 49.828125 -224.59375 L 49.984375 -225.03125 L 50.0625 -225.578125 L 50.21875 -226.203125 L 50.296875 -226.640625 L 50.453125 -227.1875 L 50.671875 -228.125 L 50.75 -228.5625 L 50.828125 -228.96875 L 50.984375 -229.515625 L 51.0625 -229.953125 L 51.21875 -230.484375 L 51.296875 -231.03125 L 51.453125 -231.5625 L 51.671875 -232.5 L 51.75 -232.9375 L 51.828125 -233.46875 L 51.984375 -233.90625 L 52.0625 -234.453125 L 52.21875 -235.078125 L 52.296875 -235.515625 L 52.453125 -236.0625 L 52.671875 -237 L 52.75 -237.4375 L 52.828125 -237.875 L 52.984375 -238.421875 L 53.0625 -238.859375 L 53.21875 -239.390625 L 53.296875 -239.9375 L 53.453125 -240.46875 L 53.671875 -241.40625 L 53.75 -241.84375 L 53.828125 -242.375 L 53.984375 -242.8125 L 54.0625 -243.359375 L 54.21875 -243.984375 L 54.296875 -244.421875 L 54.453125 -244.96875 L 54.671875 -245.90625 L 54.75 -246.34375 L 54.828125 -246.78125 L 54.984375 -247.328125 L 55.0625 -247.765625 L 55.21875 -248.296875 L 55.296875 -248.84375 L 55.453125 -249.375 L 55.671875 -250.3125 L 55.75 -250.75 L 55.828125 -251.28125 L 55.984375 -251.71875 L 56.0625 -252.265625 L 56.21875 -252.890625 L 56.296875 -253.328125 L 56.453125 -253.875 L 56.671875 -254.8125 L 56.75 -255.25 L 56.828125 -255.6875 L 56.984375 -256.234375 L 57.0625 -256.671875 L 57.21875 -257.203125 L 57.296875 -257.75 L 57.453125 -258.28125 L 57.671875 -259.21875 L 57.75 -259.65625 L 57.828125 -260.1875 L 57.984375 -260.625 L 58.0625 -261.171875 L 58.21875 -261.796875 L 58.296875 -262.234375 L 58.453125 -262.78125 L 58.671875 -263.71875 L 58.75 -264.15625 L 58.828125 -264.59375 L 58.984375 -265.140625 L 59.0625 -265.578125 L 59.21875 -266.109375 L 59.296875 -266.65625 L 59.453125 -267.1875 L 59.671875 -268.125 L 59.75 -268.5625 L 59.828125 -269.09375 L 59.984375 -269.53125 L 60.0625 -270.078125 L 60.21875 -270.703125 L 60.296875 -271.140625 L 60.453125 -271.6875 L 60.671875 -272.625 L 60.75 -273.0625 L 60.828125 -273.5 L 60.984375 -274.046875 L 61.0625 -274.484375 L 61.21875 -275.015625 L 61.296875 -275.5625 L 61.453125 -276.09375 L 61.671875 -277.03125 L 61.75 -277.46875 L 61.828125 -277.96875 L 61.984375 -278.40625 L 62.0625 -278.953125 L 62.21875 -279.578125 L 62.296875 -280.015625 L 62.453125 -280.5625 L 62.671875 -281.5 L 62.75 -281.9375 L 62.828125 -282.375 L 62.984375 -282.921875 L 63.0625 -283.359375 L 63.21875 -283.890625 L 63.296875 -284.4375 L 63.453125 -284.96875 L 63.671875 -285.90625 L 63.75 -286.34375 L 63.828125 -286.875 L 63.984375 -287.3125 L 64.0625 -287.859375 L 64.21875 -288.484375 L 64.296875 -288.921875 L 64.453125 -289.46875 L 64.671875 -290.40625 L 64.75 -290.84375 L 64.828125 -291.28125 L 64.984375 -291.828125 L 65.0625 -292.265625 L 65.21875 -292.796875 L 65.296875 -293.34375 L 65.453125 -293.875 L 65.671875 -294.8125 L 65.75 -295.25 L 65.828125 -295.78125 L 65.984375 -296.21875 L 66.0625 -296.765625 L 66.21875 -297.390625 L 66.296875 -297.828125 L 66.453125 -298.375 L 66.671875 -299.3125 L 66.75 -299.75 L 66.828125 -300.1875 L 66.984375 -300.734375 L 67.0625 -301.171875 L 67.21875 -301.703125 L 67.296875 -302.25 L 67.453125 -302.78125 L 67.671875 -303.71875 L 67.75 -304.15625 L 67.828125 -304.65625 L 67.984375 -305.09375 L 68.0625 -305.640625 L 68.21875 -306.265625 L 68.296875 -306.703125 L 68.453125 -307.25 L 68.671875 -308.1875 L 68.75 -308.625 L 68.828125 -309.0625 L 68.984375 -309.609375 L 69.0625 -310.046875 L 69.21875 -310.578125 L 69.296875 -311.125 L 69.453125 -311.65625 L 69.671875 -312.59375 L 69.75 -313.03125 L 69.828125 -313.53125 L 69.984375 -313.96875 L 70.0625 -314.515625 L 70.21875 -315.140625 L 70.296875 -315.578125 L 70.453125 -316.125 L 70.671875 -317.0625 L 70.75 -317.5 L 70.828125 -317.9375 L 70.984375 -318.484375 L 71.0625 -318.921875 L 71.21875 -319.453125 L 71.296875 -320 L 71.453125 -320.53125 L 71.671875 -321.46875 L 71.75 -321.90625 L 71.828125 -322.40625 L 71.984375 -322.84375 L 72.0625 -323.390625 L 72.21875 -324.015625 L 72.296875 -324.453125 L 72.453125 -325 L 72.671875 -325.9375 L 72.75 -326.375 L 72.828125 -326.8125 L 72.984375 -327.359375 L 73.0625 -327.796875 L 73.21875 -328.328125 L 73.296875 -328.875 L 73.453125 -329.40625 L 73.671875 -330.34375 L 73.75 -330.78125 L 73.828125 -331.28125 L 73.984375 -331.71875 L 74.0625 -332.265625 L 74.21875 -332.890625 L 74.296875 -333.328125 L 74.453125 -333.875 L 74.671875 -334.8125 L 74.75 -335.25 L 74.828125 -335.6875 L 74.984375 -336.234375 L 75.0625 -336.671875 L 75.21875 -337.203125 L 75.296875 -337.75 L 75.453125 -338.28125 L 75.671875 -339.21875 L 75.75 -339.65625 L 75.828125 -340.15625 L 75.984375 -340.59375 L 76.0625 -341.140625 L 76.21875 -341.765625 L 76.296875 -342.203125 L 76.453125 -342.75 L 76.671875 -343.6875 L 76.75 -344.125 L 76.828125 -344.5625 L 76.984375 -345.109375 L 77.0625 -345.546875 L 77.21875 -346.078125 L 77.296875 -346.625 L 77.453125 -347.15625 L 77.671875 -348.09375 L 77.75 -348.53125 L 77.828125 -349.03125 L 77.984375 -349.46875 L 78.0625 -350.015625 L 78.21875 -350.640625 L 78.296875 -351.078125 L 78.453125 -351.625 L 78.671875 -352.5625 L 78.75 -353 L 78.828125 -353.4375 L 78.984375 -353.984375 L 79.0625 -354.421875 L 79.21875 -354.953125 L 79.296875 -355.5 L 79.453125 -356.03125 L 79.671875 -356.96875 L 79.75 -357.40625 L 79.828125 -357.90625 L 79.984375 -358.34375 L 80.0625 -358.890625 L 80.21875 -359.515625 L 80.296875 -359.953125 L 80.453125 -360.5 L 80.671875 -361.4375 L 80.75 -361.875 L 80.828125 -362.3125 L 80.984375 -362.859375 L 81.0625 -363.296875 L 81.21875 -363.828125 L 81.296875 -364.375 L 81.453125 -364.90625 L 81.671875 -365.84375 L 81.75 -366.28125 L 81.828125 -366.78125 L 81.984375 -367.21875 L 82.0625 -367.765625 L 82.21875 -368.390625 L 82.296875 -368.828125 L 82.453125 -369.375 L 82.671875 -370.3125 L 82.75 -370.75 L 82.828125 -371.1875 L 82.984375 -371.734375 L 83.0625 -372.171875 L 83.21875 -372.703125 L 83.296875 -373.25 L 83.453125 -373.53125 L 83.5 -373.46875 Z M -83.0625 0 L -82.734375 -0.171875 L -82.40625 -0.359375 L -82.078125 -0.546875 L -81.75 -0.734375 L -81.421875 -0.921875 L -81.09375 -1.109375 L -80.765625 -1.296875 L -80.4375 -1.484375 L -80.109375 -1.671875 L -79.78125 -1.859375 L -79.453125 -2.046875 L -79.125 -2.234375 L -78.796875 -2.421875 L -78.46875 -2.609375 L -78.140625 -2.796875 L -77.8125 -2.984375 L -77.484375 -3.171875 L -77.15625 -3.359375 L -76.828125 -3.546875 L -76.5 -3.734375 L -76.171875 -3.921875 L -75.84375 -4.109375 L -75.515625 -4.296875 L -75.1875 -4.484375 L -74.859375 -4.671875 L -74.53125 -4.859375 L -74.203125 -5.046875 L -73.875 -5.234375 L -73.546875 -5.421875 L -73.21875 -5.609375 L -72.890625 -5.796875 L -72.5625 -5.984375 L -72.234375 -6.171875 L -71.90625 -6.359375 L -71.578125 -6.546875 L -71.25 -6.734375 L -70.921875 -6.921875 L -70.59375 -7.109375 L -70.265625 -7.296875 L -69.9375 -7.484375 L -69.609375 -7.671875 L -69.28125 -7.859375 L -68.953125 -8.046875 L -68.625 -8.234375 L -68.296875 -8.421875 L -67.96875 -8.609375 L -67.640625 -8.796875 L -67.3125 -8.984375 L -66.984375 -9.171875 L -66.65625 -9.359375 L -66.328125 -9.546875 L -66 -9.734375 L -65.671875 -9.921875 L -65.34375 -10.109375 L -65.015625 -10.296875 L -64.6875 -10.484375 L -64.359375 -10.671875 L -64.03125 -10.859375 L -63.703125 -11.046875 L -63.375 -11.234375 L -63.046875 -11.421875 L -62.71875 -11.609375 L -62.390625 -11.796875 L -62.0625 -11.984375 L -61.734375 -12.171875 L -61.40625 -12.359375 L -61.078125 -12.546875 L -60.75 -12.734375 L -60.421875 -12.921875 L -60.09375 -13.109375 L -59.765625 -13.296875 L -59.4375 -13.484375 L -59.109375 -13.671875 L -58.78125 -13.859375 L -58.453125 -14.046875 L -58.125 -14.234375 L -57.796875 -14.421875 L -57.46875 -14.609375 L -57.140625 -14.796875 L -56.8125 -14.984375 L -56.484375 -15.171875 L -56.15625 -15.359375 L -55.828125 -15.546875 L -55.5 -15.734375 L -55.171875 -15.921875 L -54.84375 -16.109375 L -54.515625 -16.296875 L -54.1875 -16.484375 L -53.859375 -16.671875 L -53.53125 -16.859375 L -53.203125 -17.046875 L -52.875 -17.234375 L -52.546875 -17.421875 L -52.21875 -17.609375 L -51.890625 -17.796875 L -51.5625 -17.984375 L -51.234375 -18.171875 L -50.90625 -18.359375 L -50.578125 -18.546875 L -50.25 -18.734375 L -49.921875 -18.921875 L -49.59375 -19.109375 L -49.265625 -19.296875 L -48.9375 -19.484375 L -48.609375 -19.671875 L -48.28125 -19.859375 L -47.953125 -20.046875 L -47.625 -20.234375 L -47.296875 -20.421875 L -46.96875 -20.609375 L -46.640625 -20.796875 L -46.3125 -20.984375 L -45.984375 -21.171875 L -45.65625 -21.359375 L -45.328125 -21.546875 L -45 -21.734375 L -44.671875 -21.921875 L -44.34375 -22.109375 L -44.015625 -22.296875 L -43.6875 -22.484375 L -43.359375 -22.671875 L -43.03125 -22.859375 L -42.703125 -23.046875 L -42.375 -23.234375 L -42.046875 -23.421875 L -41.71875 -23.609375 L -41.390625 -23.796875 L -41.0625 -23.984375 L -40.734375 -24.171875 L -40.40625 -24.359375 L -40.078125 -24.546875 L -39.75 -24.734375 L -39.421875 -24.921875 L -39.09375 -25.109375 L -38.765625 -25.296875 L -38.4375 -25.484375 L -38.109375 -25.671875 L -37.78125 -25.859375 L -37.453125 -26.046875 L -37.125 -26.234375 L -36.796875 -26.421875 L -36.46875 -26.609375 L -36.140625 -26.796875 L -35.8125 -26.984375 L -35.484375 -27.171875 L -35.15625 -27.359375 L -34.828125 -27.546875 L -34.5 -27.734375 L -34.171875 -27.921875 L -33.84375 -28.109375 L -33.515625 -28.296875 L -33.1875 -28.484375 L -32.859375 -28.671875 L -32.53125 -28.859375 L -32.203125 -29.046875 L -31.875 -29.234375 L -31.546875 -29.421875 L -31.21875 -29.609375 L -30.890625 -29.796875 L -30.5625 -29.984375 L -30.234375 -30.171875 L -29.90625 -30.359375 L -29.578125 -30.546875 L -29.25 -30.734375 L -28.921875 -30.921875 L -28.59375 -31.109375 L -28.265625 -31.296875 L -27.9375 -31.484375 L -27.609375 -31.671875 L -27.28125 -31.859375 L -26.953125 -32.046875 L -26.625 -32.234375 L -26.296875 -32.421875 L -25.96875 -32.609375 L -25.640625 -32.796875 L -25.3125 -32.984375 L -24.984375 -33.171875 L -24.65625 -33.359375 L -24.328125 -33.546875 L -24 -33.734375 L -23.671875 -33.921875 L -23.34375 -34.109375 L -23.015625 -34.296875 L -22.6875 -34.484375 L -22.359375 -34.671875 L -22.03125 -34.859375 L -21.703125 -35.046875 L -21.375 -35.234375 L -21.046875 -35.421875 L -20.71875 -35.609375 L -20.390625 -35.796875 L -20.0625 -35.984375 L -19.734375 -36.171875 L -19.40625 -36.359375 L -19.078125 -36.546875 L -18.75 -36.734375 L -18.421875 -36.921875 L -18.09375 -37.109375 L -17.765625 -37.296875 L -17.4375 -37.484375 L -17.109375 -37.671875 L -16.78125 -37.859375 L -16.453125 -38.046875 L -16.125 -38.234375 L -15.796875 -38.421875 L -15.46875 -38.609375 L -15.140625 -38.796875 L -14.8125 -38.984375 L -14.484375 -39.171875 L -14.15625 -39.359375 L -13.828125 -39.546875 L -13.5 -39.734375 L -13.171875 -39.921875 L -12.84375 -40.109375 L -12.515625 -40.296875 L -12.1875 -40.484375 L -11.859375 -40.671875 L -11.53125 -40.859375 L -11.203125 -41.046875 L -10.875 -41.234375 L -10.546875 -41.421875 L -10.21875 -41.609375 L -9.890625 -41.796875 L -9.5625 -41.984375 L -9.234375 -42.171875 L -8.90625 -42.359375 L -8.578125 -42.546875 L -8.25 -42.734375 L -7.921875 -42.921875 L -7.59375 -43.109375 L -7.265625 -43.296875 L -6.9375 -43.484375 L -6.609375 -43.671875 L -6.28125 -43.859375 L -5.953125 -44.046875 L -5.625 -44.234375 L -5.296875 -44.421875 L -4.96875 -44.609375 L -4.640625 -44.796875 L -4.3125 -44.984375 L -3.984375 -45.171875 L -3.65625 -45.359375 L -3.328125 -45.546875 L -3 -45.734375 L -2.671875 -45.921875 L -2.34375 -46.109375 L -2.015625 -46.296875 L -1.6875 -46.484375 L -1.359375 -46.671875 L -1.03125 -46.859375 L -0.703125 -47.046875 L -0.375 -47.234375 L -0.046875 -47.421875 L 0.28125 -47.609375 L 0.609375 -47.796875 L 0.9375 -47.984375 L 1.265625 -48.171875 L 1.59375 -48.359375 L 1.921875 -48.546875 L 2.25 -48.734375 L 2.578125 -48.921875 L 2.90625 -49.109375 L 3.234375 -49.296875 L 3.5625 -49.484375 L 3.890625 -49.671875 L 4.21875 -49.859375 L 4.546875 -50.046875 L 4.875 -50.234375 L 5.203125 -50.421875 L 5.53125 -50.609375 L 5.859375 -50.796875 L 6.1875 -50.984375 L 6.515625 -51.171875 L 6.84375 -51.359375 L 7.171875 -51.546875 L 7.5 -51.734375 L 7.828125 -51.921875 L 8.15625 -52.109375 L 8.484375 -52.296875 L 8.8125 -52.484375 L 9.140625 -52.671875 L 9.46875 -52.859375 L 9.796875 -53.046875 L 10.125 -53.234375 L 10.453125 -53.421875 L 10.78125 -53.609375 L 11.109375 -53.796875 L 11.4375 -53.984375 L 11.765625 -54.171875 L 12.09375 -54.359375 L 12.421875 -54.546875 L 12.75 -54.734375 L 13.078125 -54.921875 L 13.40625 -55.109375 L 13.734375 -55.296875 L 14.0625 -55.484375 L 14.390625 -55.671875 L 14.71875 -55.859375 L 15.046875 -56.046875 L 15.375 -56.234375 L 15.703125 -56.421875 L 16.03125 -56.609375 L 16.359375 -56.796875 L 16.6875 -56.984375 L 17.015625 -57.171875 L 17.34375 -57.359375 L 17.671875 -57.546875 L 18 -57.734375 L 18.328125 -57.921875 L 18.65625 -58.109375 L 18.984375 -58.296875 L 19.3125 -58.484375 L 19.640625 -58.671875 L 19.96875 -58.859375 L 20.296875 -59.046875 L 20.625 -59.234375 L 20.953125 -59.421875 L 21.28125 -59.609375 L 21.609375 -59.796875 L 21.9375 -59.984375 L 22.265625 -60.171875 L 22.59375 -60.359375 L 22.921875 -60.546875 L 23.25 -60.734375 L 23.578125 -60.921875 L 23.90625 -61.109375 L 24.234375 -61.296875 L 24.5625 -61.484375 L 24.890625 -61.671875 L 25.21875 -61.859375 L 25.546875 -62.046875 L 25.875 -62.234375 L 26.203125 -62.421875 L 26.53125 -62.609375 L 26.859375 -62.796875 L 27.1875 -62.984375 L 27.515625 -63.171875 L 27.84375 -63.359375 L 28.171875 -63.546875 L 28.5 -63.734375 L 28.828125 -63.921875 L 29.15625 -64.109375 L 29.484375 -64.296875 L 29.8125 -64.484375 L 30.140625 -64.671875 L 30.46875 -64.859375 L 30.796875 -65.046875 L 31.125 -65.234375 L 31.453125 -65.421875 L 31.78125 -65.609375 L 32.109375 -65.796875 L 32.4375 -65.984375 L 32.765625 -66.171875 L 33.09375 -66.359375 L 33.421875 -66.546875 L 33.75 -66.734375 L 34.078125 -66.921875 L 34.40625 -67.109375 L 34.734375 -67.296875 L 35.0625 -67.484375 L 35.390625 -67.671875 L 35.71875 -67.859375 L 36.046875 -68.046875 L 36.375 -68.234375 L 36.703125 -68.421875 L 37.03125 -68.609375 L 37.359375 -68.796875 L 37.6875 -68.984375 L 38.015625 -69.171875 L 38.34375 -69.359375 L 38.671875 -69.546875 L 39 -69.734375 L 39.328125 -69.921875 L 39.65625 -70.109375 L 39.984375 -70.296875 L 40.3125 -70.484375 L 40.640625 -70.671875 L 40.96875 -70.859375 L 41.296875 -71.046875 L 41.625 -71.234375 L 41.953125 -71.421875 L 42.28125 -71.609375 L 42.609375 -71.796875 L 42.9375 -71.984375 L 43.265625 -72.171875 L 43.59375 -72.359375 L 43.921875 -72.546875 L 44.25 -72.734375 L 44.578125 -72.921875 L 44.90625 -73.109375 L 45.234375 -73.296875 L 45.5625 -73.484375 L 45.890625 -73.671875 L 46.21875 -73.859375 L 46.546875 -74.046875 L 46.875 -74.234375 L 47.203125 -74.421875 L 47.53125 -74.609375 L 47.859375 -74.796875 L 48.1875 -74.984375 L 48.515625 -75.171875 L 48.84375 -75.359375 L 49.171875 -75.546875 L 49.5 -75.734375 L 49.828125 -75.921875 L 50.15625 -76.109375 L 50.484375 -76.296875 L 50.8125 -76.484375 L 51.140625 -76.671875 L 51.46875 -76.859375 L 51.796875 -77.046875 L 52.125 -77.234375 L 52.453125 -77.421875 L 52.78125 -77.609375 L 53.109375 -77.796875 L 53.4375 -77.984375 L 53.765625 -78.171875 L 54.09375 -78.359375 L 54.421875 -78.546875 L 54.75 -78.734375 L 55.078125 -78.921875 L 55.40625 -79.109375 L 55.734375 -79.296875 L 56.0625 -79.484375 L 56.390625 -79.671875 L 56.71875 -79.859375 L 57.046875 -80.046875 L 57.375 -80.234375 L 57.703125 -80.421875 L 58.03125 -80.609375 L 58.359375 -80.796875 L 58.6875 -80.984375 L 59.015625 -81.171875 L 59.34375 -81.359375 L 59.671875 -81.546875 L 60 -81.734375 L 60.328125 -81.921875 L 60.65625 -82.109375 L 60.984375 -82.296875 L 61.3125 -82.484375 L 61.640625 -82.671875 L 61.96875 -82.859375 L 62.296875 -83.046875 L 62.625 -83.234375 L 62.953125 -83.421875 L 63.28125 -83.609375 L 63.609375 -83.796875 L 63.9375 -83.984375 L 64.265625 -84.171875 L 64.59375 -84.359375 L 64.921875 -84.546875 L 65.25 -84.734375 L 65.578125 -84.921875 L 65.90625 -85.109375 L 66.234375 -85.296875 L 66.5625 -85.484375 L 66.890625 -85.671875 L 67.21875 -85.859375 L 67.546875 -86.046875 L 67.875 -86.234375 L 68.203125 -86.421875 L 68.53125 -86.609375 L 68.859375 -86.796875 L 69.1875 -86.984375 L 69.515625 -87.171875 L 69.84375 -87.359375 L 70.171875 -87.546875 L 70.5 -87.734375 L 70.828125 -87.921875 L 71.15625 -88.109375 L 71.484375 -88.296875 L 71.8125 -88.484375 L 72.140625 -88.671875 L 72.46875 -88.859375 L 72.796875 -89.046875 L 73.125 -89.234375 L 73.453125 -89.421875 L 73.78125 -89.609375 L 74.109375 -89.796875 L 74.4375 -89.984375 L 74.765625 -90.171875 L 75.09375 -90.359375 L 75.421875 -90.546875 L 75.75 -90.734375 L 76.078125 -90.921875 L 76.40625 -91.109375 L 76.734375 -91.296875 L 77.0625 -91.484375 L 77.390625 -91.671875 L 77.71875 -91.859375 L 78.046875 -92.046875 L 78.375 -92.234375 L 78.703125 -92.421875 L 79.03125 -92.609375 L 79.359375 -92.796875 L 79.6875 -92.984375 L 80.015625 -93.171875 L 80.34375 -93.359375 L 80.671875 -93.546875 L 81 -93.734375 L 81.328125 -93.921875 L 81.65625 -94.109375 L 81.984375 -94.296875 L 82.3125 -94.484375 L 82.640625 -94.671875 L 82.96875 -94.859375 L 83.296875 -95.046875 L 83.625 -95.234375 L 83.953125 -95.078125 Z" fill-rule="nonzero"/></g></g></g></svg>
