<svg xmlns="http://www.w3.org/2000/svg" xmlns:xlink="http://www.w3.org/1999/xlink" width="500" zoomAndPan="magnify" viewBox="0 0 375 374.999991" height="500" preserveAspectRatio="xMidYMid meet" version="1.2"><defs><clipPath id="c88e3b6fb2"><path d="M 2.261719 155 L 33 155 L 33 219 L 2.261719 219 Z M 2.261719 155 "/></clipPath><clipPath id="2bfa20301a"><path d="M 34 148 L 66 148 L 66 229.71875 L 34 229.71875 Z M 34 148 "/></clipPath></defs><g id="2ceecd2d55"><g style="fill:#ffffff;fill-opacity:1;"><g transform="translate(100.50038, 189.096894)"><path style="stroke:none" d="M 5.9375 0.078125 L 4.71875 0 L 4.1875 -0.078125 L 2.8125 0 L 2.359375 -0.375 L 2.359375 -1.828125 L 2.59375 -2.28125 L 2.515625 -2.8125 L 2.75 -3.890625 L 2.75 -4.34375 L 2.96875 -5.40625 L 3.203125 -6.546875 L 3.421875 -7.546875 L 3.5 -8.078125 L 3.734375 -8.984375 L 3.8125 -9.53125 L 3.890625 -9.984375 L 4.1875 -11.734375 L 4.421875 -12.1875 L 4.5 -13.1875 L 4.578125 -13.71875 L 4.71875 -14.171875 L 5.03125 -15.171875 L 5.109375 -15.625 L 5.1875 -16.53125 L 5.1875 -16.921875 L 5.5625 -17.671875 L 5.5625 -18.515625 L 5.71875 -18.96875 L 5.71875 -19.515625 L 5.9375 -19.96875 L 6.015625 -21.109375 L 6.25 -22.703125 L 6.484375 -23.234375 L 6.546875 -23.859375 L 6.625 -24.921875 L 6.78125 -25.453125 L 6.859375 -25.90625 L 7.015625 -26.4375 L 7.09375 -26.90625 L 7.3125 -27.96875 L 7.390625 -28.578125 L 7.546875 -29.71875 L 7.765625 -30.9375 L 8 -31.921875 L 8 -32.84375 L 8.078125 -33.828125 L 8.234375 -34.375 L 8.453125 -34.90625 L 8.53125 -35.890625 L 8.609375 -36.34375 L 8.921875 -37.5625 L 8.984375 -38.40625 L 8.921875 -38.71875 L 9.140625 -39.703125 L 9.21875 -40.15625 L 9.296875 -41.53125 L 9.453125 -42.140625 L 9.671875 -43.203125 L 9.90625 -43.890625 L 9.984375 -44.8125 L 10.140625 -45.34375 L 10.140625 -45.953125 L 10.28125 -46.484375 L 10.359375 -47.015625 L 10.359375 -47.46875 L 10.515625 -48.015625 L 10.828125 -49.234375 L 10.890625 -49.765625 L 10.96875 -50.375 L 11.203125 -51.4375 L 11.28125 -52.046875 L 11.578125 -53.03125 L 12.1875 -53.34375 L 16.15625 -53.34375 L 17.140625 -53.421875 L 18.140625 -53.34375 L 18.59375 -53.421875 L 23.703125 -53.421875 L 24.234375 -53.34375 L 25.375 -53.421875 L 26.4375 -53.421875 L 27.578125 -53.265625 L 28.1875 -53.265625 L 29.1875 -53.109375 L 30.78125 -52.890625 L 32 -52.65625 L 32.53125 -52.5 L 33.078125 -52.125 L 33.609375 -51.890625 L 34.59375 -51.359375 L 35.28125 -50.75 L 35.59375 -50.375 L 36.046875 -49.765625 L 36.5 -49.234375 L 36.734375 -48.625 L 37.1875 -47.625 L 37.34375 -47.09375 L 37.640625 -46.25 L 37.71875 -45.421875 L 37.796875 -44.890625 L 38.03125 -44.046875 L 37.953125 -43.28125 L 38.03125 -42.140625 L 38.03125 -41.609375 L 38.09375 -40.765625 L 38.03125 -39.9375 L 37.875 -39.09375 L 37.796875 -38.5625 L 37.640625 -36.875 L 37.484375 -35.8125 L 37.265625 -35.28125 L 37.1875 -34.671875 L 36.953125 -34.140625 L 36.875 -33.6875 L 36.734375 -33.21875 L 36.5 -32.15625 L 36.265625 -31.546875 L 35.890625 -30.484375 L 35.28125 -29.03125 L 34.90625 -28.1875 L 34.375 -27.28125 L 33.6875 -26.140625 L 33.21875 -25.6875 L 32.6875 -24.765625 L 32 -24.15625 L 31.46875 -23.390625 L 31.09375 -22.859375 L 30.09375 -22.09375 L 29.71875 -21.640625 L 28.65625 -21.109375 L 27.890625 -20.875 L 26.90625 -20.421875 L 25.6875 -20.046875 L 24.765625 -19.890625 L 23.78125 -19.8125 L 22.703125 -19.65625 L 20.578125 -19.515625 L 19.125 -19.578125 L 17.453125 -19.578125 L 16.3125 -19.65625 L 16.3125 -19.515625 L 16.234375 -18.96875 L 16 -18.359375 L 15.921875 -17.375 L 15.78125 -17 L 15.703125 -16 L 15.625 -15.546875 L 15.546875 -15.015625 L 15.390625 -14.5625 L 15.3125 -14.015625 L 15.3125 -13.5625 L 15.09375 -12.5 L 14.859375 -11.8125 L 14.703125 -10.890625 L 14.5625 -10.359375 L 14.328125 -9.453125 L 14.25 -8.921875 L 14.015625 -8.375 L 14.015625 -7.625 L 13.796875 -6.484375 L 13.796875 -5.40625 L 13.484375 -4.953125 L 13.484375 -4.34375 L 13.40625 -3.8125 L 13.265625 -3.359375 L 13.1875 -2.8125 L 12.953125 -2.203125 L 12.875 -1.53125 L 12.796875 -0.921875 L 12.578125 0 L 12.046875 0.078125 Z M 17.90625 -29.265625 L 19.890625 -29.265625 L 20.734375 -29.421875 L 22.171875 -29.5625 L 22.703125 -29.796875 L 23.921875 -30.703125 L 24.765625 -31.46875 L 25.296875 -32.3125 L 25.609375 -32.765625 L 25.984375 -33.828125 L 26.140625 -34.515625 L 26.4375 -35.203125 L 26.75 -36.5 L 27.046875 -38.640625 L 27.203125 -40.609375 L 27.203125 -41.90625 L 26.90625 -42.828125 L 26.4375 -43.515625 L 25.609375 -44.125 L 24.921875 -44.28125 L 22.859375 -44.34375 L 21.109375 -44.28125 L 20.578125 -44.125 L 20.1875 -43.203125 L 20.046875 -42.828125 L 19.96875 -42.0625 L 19.8125 -40.765625 L 19.65625 -40.234375 L 19.4375 -39.328125 L 19.203125 -37.796875 L 19.046875 -37.03125 L 18.828125 -35.8125 L 18.75 -34.90625 L 18.75 -34.296875 L 18.59375 -33.609375 L 18.21875 -31.703125 L 18.21875 -31.015625 L 17.984375 -29.953125 Z M 17.90625 -29.265625 "/></g></g><g style="fill:#ffffff;fill-opacity:1;"><g transform="translate(135.399648, 189.096894)"><path style="stroke:none" d="M 18.4375 1.21875 L 16.453125 0.984375 L 15.46875 1.0625 L 14.9375 0.984375 L 14.25 0.921875 L 12.5 0.375 L 11.890625 0.3125 L 10.75 0 L 10.21875 -0.3125 L 9.140625 -0.984375 L 7.765625 -2.140625 L 6.703125 -3.359375 L 6.484375 -3.734375 L 6.09375 -4.109375 L 5.875 -4.578125 L 5.484375 -5.109375 L 4.875 -6.09375 L 4.875 -6.546875 L 4.640625 -7.09375 L 4.578125 -7.546875 L 4.421875 -7.921875 L 4.265625 -8.375 L 4.1875 -8.921875 L 4.03125 -9.375 L 3.96875 -10.4375 L 3.890625 -10.890625 L 3.65625 -12.421875 L 3.8125 -12.953125 L 3.8125 -14.40625 L 4.03125 -15.171875 L 3.96875 -15.78125 L 3.96875 -16.3125 L 4.109375 -17.984375 L 4.421875 -19.046875 L 4.421875 -19.65625 L 4.578125 -20.734375 L 4.578125 -21.265625 L 4.875 -22.328125 L 4.71875 -22.703125 L 4.875 -23.703125 L 5.03125 -24.234375 L 5.265625 -25.609375 L 5.484375 -26.515625 L 5.484375 -27.515625 L 5.71875 -28.421875 L 5.71875 -28.953125 L 5.9375 -29.421875 L 6.09375 -29.953125 L 6.09375 -30.40625 L 6.25 -30.9375 L 6.171875 -31.390625 L 6.625 -32.15625 L 6.78125 -32.6875 L 6.78125 -33.765625 L 6.9375 -34.671875 L 7.15625 -35.203125 L 7.234375 -35.65625 L 7.390625 -36.734375 L 7.703125 -38.640625 L 8.078125 -39.171875 L 8.234375 -40.15625 L 8.6875 -41.15625 L 8.921875 -41.6875 L 9.21875 -42.59375 L 9.609375 -43.671875 L 10.0625 -44.578125 L 10.359375 -45.109375 L 11.046875 -46.109375 L 11.125 -46.640625 L 11.4375 -47.09375 L 12.046875 -48.078125 L 12.65625 -49 L 13.1875 -49.375 L 13.5625 -49.84375 L 14.625 -50.984375 L 15.625 -51.671875 L 16.234375 -51.890625 L 16.765625 -52.28125 L 17.671875 -52.8125 L 18.59375 -53.265625 L 19.734375 -53.578125 L 20.1875 -53.640625 L 21.34375 -53.953125 L 22.09375 -54.03125 L 23.46875 -54.25 L 24.53125 -54.328125 L 25.453125 -54.40625 L 26.828125 -54.328125 L 27.28125 -54.25 L 28.125 -54.1875 L 29.34375 -54.03125 L 29.953125 -53.796875 L 30.5625 -53.71875 L 31.015625 -53.578125 L 32.15625 -53.03125 L 33.53125 -52.125 L 34.140625 -51.734375 L 34.515625 -51.28125 L 35.359375 -50.59375 L 36.203125 -49.84375 L 36.578125 -49.375 L 36.8125 -48.84375 L 37.265625 -47.859375 L 37.484375 -47.390625 L 37.640625 -46.9375 L 37.796875 -46.40625 L 38.03125 -45.265625 L 38.171875 -43.8125 L 38.25 -43.203125 L 38.25 -42.671875 L 38.171875 -41.6875 L 38.09375 -41.21875 L 38.171875 -40.234375 L 38.171875 -39.703125 L 38.09375 -38.71875 L 37.953125 -38.171875 L 37.875 -37.71875 L 37.953125 -37.1875 L 37.953125 -36.421875 L 37.875 -35.96875 L 37.71875 -34.90625 L 37.640625 -33.765625 L 37.5625 -32.53125 L 37.421875 -32 L 37.265625 -30.78125 L 37.34375 -30.03125 L 36.953125 -29.1875 L 37.03125 -28.265625 L 36.734375 -27.28125 L 36.578125 -26.296875 L 36.34375 -25.296875 L 36.265625 -24.390625 L 36.046875 -23.390625 L 35.8125 -22.9375 L 35.59375 -21.5625 L 35.59375 -20.875 L 35.4375 -20.34375 L 35.28125 -19.28125 L 35.046875 -18.828125 L 34.296875 -16.15625 L 34.375 -15.703125 L 33.984375 -14.78125 L 33.765625 -14.328125 L 33.6875 -13.484375 L 33.296875 -12.65625 L 33.078125 -11.734375 L 33.078125 -11.203125 L 32.84375 -10.359375 L 32.46875 -9.828125 L 32.390625 -9.0625 L 31.859375 -8 L 31.25 -6.625 L 30.859375 -6.09375 L 30.171875 -5.109375 L 29.875 -4.640625 L 29.484375 -4.1875 L 29.34375 -3.734375 L 28.421875 -2.8125 L 27.96875 -2.4375 L 27.578125 -1.984375 L 26.671875 -1.296875 L 25.75 -0.6875 L 25.453125 -0.453125 L 23.703125 0.234375 L 23.171875 0.3125 L 22.5625 0.453125 L 21.484375 0.6875 L 20.953125 0.765625 L 20.125 0.984375 Z M 17.828125 -9.140625 L 18.828125 -9.140625 L 19.890625 -9.453125 L 20.578125 -9.75 L 21.640625 -10.515625 L 22.171875 -11.578125 L 22.625 -12.65625 L 22.78125 -13.1875 L 22.78125 -13.796875 L 23.015625 -14.9375 L 23.171875 -15.46875 L 23.3125 -16.53125 L 23.546875 -17.140625 L 23.625 -18.21875 L 23.859375 -18.75 L 24.078125 -19.734375 L 24.15625 -20.34375 L 24.390625 -20.796875 L 24.390625 -21.40625 L 24.3125 -21.640625 L 24.53125 -22.328125 L 24.765625 -23.46875 L 24.921875 -25.21875 L 25.140625 -25.90625 L 25.375 -26.515625 L 25.53125 -27.96875 L 25.75 -28.421875 L 25.6875 -29.71875 L 25.984375 -30.859375 L 26.140625 -31.78125 L 26.296875 -32.390625 L 26.4375 -32.921875 L 26.359375 -33.453125 L 26.4375 -34.4375 L 26.59375 -35.046875 L 26.828125 -36.125 L 26.96875 -36.8125 L 26.96875 -37.796875 L 27.125 -39.171875 L 27.203125 -40.15625 L 27.359375 -41.21875 L 27.046875 -42.75 L 26.75 -43.203125 L 26.21875 -43.890625 L 25 -44.421875 L 23.546875 -44.34375 L 22.9375 -44.203125 L 21.71875 -43.734375 L 20.953125 -43.0625 L 20.421875 -42.21875 L 20.125 -41.296875 L 19.8125 -40.765625 L 19.359375 -39.78125 L 19.203125 -39.25 L 19.046875 -38.640625 L 18.59375 -37.03125 L 18.59375 -36.875 L 18.515625 -36.265625 L 18.28125 -35.203125 L 18.21875 -34.75 L 17.90625 -33.6875 L 17.671875 -32.609375 L 17.453125 -31.390625 L 17.375 -30.859375 L 17.21875 -30.328125 L 17.0625 -29.1875 L 16.84375 -28.578125 L 16.53125 -27.359375 L 16.390625 -26.828125 L 16.234375 -25.75 L 16.234375 -25.21875 L 16.15625 -24.6875 L 16.234375 -24.078125 L 16 -23.546875 L 15.625 -22.484375 L 15.703125 -21.875 L 15.546875 -21.34375 L 15.625 -21.03125 L 15.46875 -20.34375 L 15.46875 -19.734375 L 15.3125 -19.203125 L 15.3125 -18.59375 L 15.09375 -17.453125 L 15.09375 -16.921875 L 14.859375 -16.390625 L 15.09375 -15.84375 L 15.015625 -14.9375 L 14.703125 -14.171875 L 14.9375 -13.640625 L 14.9375 -11.5 L 15.171875 -10.96875 L 15.3125 -10.671875 L 15.78125 -9.984375 L 16.15625 -9.609375 L 16.765625 -9.375 L 17.375 -9.21875 Z M 17.828125 -9.140625 "/></g></g><g style="fill:#ffffff;fill-opacity:1;"><g transform="translate(172.356295, 189.096894)"><path style="stroke:none" d="M 35.28125 0.15625 L 34.140625 0.078125 L 28.734375 0.078125 L 28.34375 -0.234375 L 28.125 -1.0625 L 28.046875 -2.140625 L 28.125 -2.59375 L 27.96875 -3.65625 L 27.8125 -4.875 L 27.578125 -5.484375 L 27.65625 -6.484375 L 27.734375 -6.9375 L 27.65625 -8 L 27.578125 -8.53125 L 27.578125 -10.0625 L 27.359375 -10.59375 L 27.515625 -11.046875 L 27.4375 -11.578125 L 27.515625 -12.65625 L 27.28125 -13.5625 L 27.4375 -14.40625 L 27.578125 -15.546875 L 27.4375 -16.53125 L 27.28125 -17.21875 L 27.125 -18.59375 L 27.125 -19.125 L 27.4375 -21.03125 L 27.359375 -22.328125 L 27.28125 -23.703125 L 27.359375 -25.078125 L 27.203125 -26.4375 L 26.828125 -26.4375 L 26.359375 -25.6875 L 26.21875 -25.140625 L 25.90625 -24.6875 L 25.53125 -23.3125 L 25 -22.015625 L 24.53125 -21.03125 L 22.703125 -16.609375 L 22.40625 -16.078125 L 21.03125 -13.03125 L 20.953125 -12.5 L 20.5 -11.578125 L 20.421875 -11.125 L 20.1875 -10.28125 L 19.734375 -9.296875 L 19.28125 -8.375 L 19.125 -7.921875 L 18.890625 -7.015625 L 18.671875 -6.484375 L 18.359375 -6.015625 L 18.140625 -4.953125 L 17.90625 -4.421875 L 17.609375 -3.65625 L 17.375 -2.96875 L 17.21875 -2.140625 L 16.6875 -1.296875 L 16.453125 -0.84375 L 16.3125 -0.453125 L 15.234375 -0.078125 L 14.78125 -0.078125 L 14.09375 -0.3125 L 13.71875 -0.15625 L 11.96875 -0.234375 L 11.046875 0 L 10.28125 -0.3125 L 9.828125 -0.234375 L 9.0625 -0.234375 L 8.53125 -0.15625 L 7.765625 -0.15625 L 7.234375 -0.234375 L 6.78125 -0.921875 L 6.859375 -1.53125 L 6.703125 -2.0625 L 6.78125 -2.8125 L 6.78125 -3.5 L 6.703125 -4.03125 L 6.78125 -4.953125 L 6.703125 -5.40625 L 6.78125 -5.9375 L 6.703125 -6.625 L 6.78125 -7.15625 L 6.859375 -8 L 6.859375 -8.765625 L 6.9375 -9.21875 L 7.015625 -10.28125 L 6.9375 -10.828125 L 7.015625 -11.359375 L 6.9375 -12.421875 L 6.9375 -13.9375 L 7.015625 -14.40625 L 7.09375 -15.46875 L 7.09375 -19.65625 L 7.15625 -20.734375 L 7.15625 -21.34375 L 7.3125 -22.703125 L 7.15625 -23.703125 L 7.234375 -24.390625 L 7.390625 -25.375 L 7.390625 -25.90625 L 7.546875 -26.515625 L 7.46875 -27.046875 L 7.46875 -28.34375 L 7.546875 -28.875 L 7.625 -29.796875 L 7.546875 -30.328125 L 7.625 -31.3125 L 7.546875 -31.78125 L 7.625 -32.84375 L 7.546875 -33.453125 L 7.703125 -33.984375 L 7.625 -35.125 L 7.546875 -35.65625 L 7.625 -37.875 L 7.703125 -38.9375 L 7.625 -39.9375 L 7.765625 -41.375 L 7.84375 -41.90625 L 7.921875 -42.671875 L 7.921875 -43.59375 L 8 -44.734375 L 7.921875 -46.328125 L 7.921875 -46.859375 L 8.078125 -48.390625 L 8.078125 -48.84375 L 8.15625 -49.375 L 8.078125 -50.296875 L 8.078125 -50.828125 L 8.15625 -51.28125 L 8.15625 -51.96875 L 8.3125 -53.03125 L 9.21875 -53.265625 L 11.203125 -53.265625 L 12.046875 -53.34375 L 12.796875 -53.265625 L 13.1875 -53.265625 L 13.796875 -53.34375 L 15.3125 -53.34375 L 16.3125 -53.1875 L 17.140625 -53.265625 L 17.671875 -53.265625 L 18.515625 -52.8125 L 18.671875 -51.515625 L 18.671875 -50.828125 L 18.75 -50.296875 L 18.4375 -47.9375 L 18.4375 -47.46875 L 18.515625 -46.9375 L 18.4375 -44.125 L 18.28125 -43.671875 L 18.21875 -41.90625 L 18.21875 -40.546875 L 18.140625 -40 L 17.90625 -38.9375 L 17.90625 -37.953125 L 18.0625 -36.875 L 17.984375 -36.34375 L 17.90625 -35.890625 L 17.828125 -34.828125 L 17.75 -34.296875 L 17.75 -33.828125 L 17.609375 -33.296875 L 17.609375 -32.84375 L 17.53125 -32.3125 L 17.609375 -31.859375 L 17.53125 -30.171875 L 17.375 -29.109375 L 17.453125 -28.578125 L 17.375 -27.96875 L 17.375 -26.90625 L 17.21875 -25.90625 L 17.296875 -25.140625 L 17.609375 -25.140625 L 18.0625 -25.984375 L 18.28125 -26.4375 L 18.75 -27.4375 L 18.890625 -27.96875 L 19.359375 -28.953125 L 19.578125 -29.875 L 20.125 -30.859375 L 20.1875 -31.3125 L 21.265625 -33.140625 L 21.40625 -34.0625 L 21.953125 -35.4375 L 22.09375 -35.96875 L 22.78125 -37.34375 L 23.09375 -38.25 L 23.3125 -38.640625 L 23.703125 -39.546875 L 23.921875 -40 L 24.15625 -40.84375 L 24.609375 -41.90625 L 25.375 -43.8125 L 25.53125 -44.34375 L 26.0625 -45.875 L 26.515625 -46.859375 L 26.671875 -47.46875 L 27.125 -48.84375 L 27.359375 -49.296875 L 27.890625 -50.296875 L 28.65625 -50.671875 L 31.09375 -50.671875 L 32 -50.59375 L 32.765625 -50.671875 L 33.375 -50.671875 L 33.90625 -50.59375 L 34.4375 -50.59375 L 34.828125 -50.0625 L 34.90625 -48.15625 L 34.90625 -45.875 L 34.984375 -44.65625 L 34.90625 -43.0625 L 34.90625 -42.59375 L 34.984375 -41.53125 L 34.90625 -41.078125 L 34.984375 -38.25 L 34.984375 -37.71875 L 34.828125 -36.734375 L 34.90625 -35.890625 L 34.90625 -34.375 L 34.984375 -33.765625 L 34.828125 -33.296875 L 34.90625 -32.6875 L 34.828125 -32.15625 L 34.75 -31.546875 L 34.90625 -30.03125 L 34.828125 -27.28125 L 34.984375 -26.21875 L 34.984375 -24.921875 L 35.359375 -24.921875 L 35.59375 -25.75 L 35.96875 -26.671875 L 36.265625 -27.65625 L 36.875 -29.796875 L 36.953125 -30.328125 L 37.109375 -30.78125 L 37.796875 -32.53125 L 38.03125 -33.453125 L 38.25 -33.90625 L 38.40625 -34.4375 L 38.5625 -34.90625 L 38.78125 -35.4375 L 39.015625 -35.890625 L 39.328125 -36.875 L 39.46875 -37.484375 L 39.78125 -38.40625 L 39.859375 -38.9375 L 40 -39.390625 L 40.15625 -39.9375 L 40.6875 -40.84375 L 40.765625 -41.375 L 41 -42.296875 L 41.375 -44.28125 L 41.90625 -45.265625 L 42.21875 -46.25 L 42.4375 -47.09375 L 42.828125 -47.9375 L 43.203125 -49 L 43.4375 -49.453125 L 43.59375 -49.984375 L 43.8125 -50.515625 L 43.890625 -51.0625 L 44.046875 -51.515625 L 44.5 -52.5 L 44.734375 -52.890625 L 45.640625 -53.265625 L 46.171875 -53.265625 L 46.71875 -53.421875 L 49.078125 -53.34375 L 50.59375 -53.34375 L 52.203125 -53.421875 L 53.265625 -53.34375 L 53.796875 -53.421875 L 54.328125 -53.34375 L 55.09375 -53.34375 L 55.546875 -52.890625 L 55.40625 -51.59375 L 55.25 -51.125 L 54.9375 -50.296875 L 54.71875 -49.84375 L 53.953125 -48.015625 L 53.640625 -47.09375 L 53.421875 -46.03125 L 53.109375 -45.03125 L 52.890625 -44.5 L 52.8125 -44.046875 L 52.203125 -43.0625 L 52.046875 -42.515625 L 51.515625 -41.078125 L 51.359375 -40.546875 L 50.984375 -39.625 L 50.90625 -39.09375 L 50.296875 -37.71875 L 50.140625 -37.03125 L 49.984375 -36.65625 L 49.53125 -35.65625 L 49.375 -35.203125 L 49 -33.984375 L 48.6875 -33.53125 L 48.3125 -32.53125 L 48.078125 -32 L 47.9375 -31.46875 L 47.703125 -30.40625 L 47.546875 -29.953125 L 47.25 -29.421875 L 46.9375 -28.578125 L 46.40625 -27.65625 L 46.03125 -26.59375 L 45.796875 -25.75 L 45.265625 -25.078125 L 45.109375 -24.609375 L 45.03125 -24.15625 L 44.578125 -22.328125 L 44.203125 -21.34375 L 43.96875 -20.875 L 43.671875 -19.96875 L 43.0625 -18.75 L 42.828125 -17.671875 L 42.21875 -16.609375 L 41.984375 -15.546875 L 41.6875 -15.015625 L 41.609375 -14.484375 L 41 -12.875 L 40.84375 -12.421875 L 40.46875 -11.359375 L 40.3125 -10.890625 L 40 -10.359375 L 39.859375 -9.375 L 39.703125 -8.84375 L 39.25 -7.921875 L 38.9375 -6.9375 L 38.71875 -6.328125 L 38.328125 -5.265625 L 38.25 -4.796875 L 38.03125 -3.8125 L 36.953125 -1.984375 L 36.421875 -0.078125 Z M 35.28125 0.15625 "/></g></g><g style="fill:#ffffff;fill-opacity:1;"><g transform="translate(222.038215, 189.096894)"><path style="stroke:none" d="M 6.171875 0.15625 L 5.03125 0.078125 L 4.5 0 L -1.0625 -0.078125 L -1.75 -0.234375 L -1.90625 -0.84375 L -1.75 -1.375 L -1.671875 -1.828125 L -1.21875 -2.75 L -0.609375 -3.734375 L 0.15625 -6.015625 L 0.609375 -6.9375 L 0.984375 -7.84375 L 1.828125 -9.671875 L 2.140625 -10.671875 L 2.75 -12.046875 L 2.890625 -12.5 L 3.28125 -13.03125 L 3.65625 -13.9375 L 3.8125 -14.40625 L 3.890625 -14.9375 L 4.109375 -15.390625 L 4.5 -16.390625 L 4.71875 -16.921875 L 5.265625 -17.984375 L 5.40625 -18.515625 L 5.5625 -19.203125 L 5.9375 -19.8125 L 6.40625 -20.734375 L 6.546875 -21.265625 L 7.015625 -22.328125 L 7.09375 -22.78125 L 7.3125 -23.3125 L 7.546875 -23.78125 L 7.921875 -24.84375 L 8.15625 -25.296875 L 8.765625 -27.4375 L 8.984375 -28.046875 L 9.53125 -29.03125 L 9.90625 -30.328125 L 10.359375 -31.171875 L 10.59375 -31.625 L 10.828125 -32.609375 L 11.203125 -33.140625 L 11.4375 -34.140625 L 11.578125 -34.515625 L 12.046875 -35.515625 L 12.265625 -36.578125 L 12.65625 -37.109375 L 12.953125 -37.5625 L 13.5625 -39.171875 L 13.9375 -40.15625 L 14.171875 -40.609375 L 14.625 -41.296875 L 14.859375 -42.0625 L 15.09375 -42.59375 L 15.78125 -43.96875 L 15.921875 -44.5 L 16.15625 -44.953125 L 16.3125 -45.421875 L 16.453125 -45.953125 L 16.921875 -46.78125 L 17.21875 -47.25 L 17.375 -47.625 L 17.828125 -49 L 18.359375 -49.984375 L 19.046875 -51.359375 L 19.28125 -51.890625 L 19.515625 -52.34375 L 19.8125 -53.1875 L 20.34375 -53.265625 L 21.109375 -53.265625 L 22.5625 -53.1875 L 23.3125 -53.265625 L 24.53125 -53.265625 L 25.984375 -53.34375 L 26.671875 -53.34375 L 27.203125 -53.1875 L 27.890625 -53.265625 L 29.109375 -53.265625 L 29.484375 -53.109375 L 30.03125 -52.734375 L 30.25 -49.453125 L 30.25 -47.78125 L 30.40625 -47.328125 L 30.40625 -45.953125 L 30.484375 -43.203125 L 30.484375 -42.140625 L 30.5625 -41.15625 L 30.703125 -39.625 L 30.703125 -38.5625 L 30.78125 -37.421875 L 30.703125 -36.875 L 30.703125 -35.203125 L 30.859375 -34.140625 L 30.859375 -32.609375 L 30.9375 -31.546875 L 30.859375 -31.09375 L 30.9375 -30.09375 L 30.9375 -29.640625 L 31.015625 -28.421875 L 31.171875 -27.578125 L 31.171875 -24.609375 L 31.25 -23.703125 L 31.3125 -23.09375 L 31.3125 -20.796875 L 31.390625 -17.296875 L 31.390625 -16.765625 L 31.46875 -15.625 L 31.390625 -14.484375 L 31.46875 -13.40625 L 31.390625 -12.875 L 31.546875 -9.984375 L 31.546875 -9.53125 L 31.625 -8.53125 L 31.703125 -8 L 31.703125 -6.859375 L 31.625 -5.796875 L 31.703125 -5.1875 L 31.703125 -4.5 L 31.78125 -2.8125 L 31.78125 -1.21875 C 31.832031 -1.0625 31.859375 -0.84375 31.859375 -0.5625 C 31.859375 -0.289062 31.753906 -0.101562 31.546875 0 C 31.390625 0.0507812 31.25 0.0625 31.125 0.03125 C 31 0.0078125 30.859375 0 30.703125 0 L 30.171875 0.078125 L 29.5625 0 L 28.5 0 L 26.828125 0.078125 L 26.21875 0.078125 L 25.296875 0 L 24.765625 0.078125 L 24 0.15625 L 23.015625 0.078125 L 21.875 0.078125 L 21.5625 -0.15625 L 21.40625 -0.921875 L 21.34375 -2.28125 L 21.265625 -3.046875 L 21.34375 -3.8125 L 21.34375 -7.390625 L 21.265625 -8 L 19.578125 -8.078125 L 18.359375 -8.234375 L 15.015625 -8.3125 L 12.953125 -8.3125 L 12.578125 -7.46875 L 12.046875 -6.484375 L 11.890625 -5.9375 L 11.65625 -5.40625 L 11.359375 -4.5 L 10.59375 -3.046875 L 10.140625 -1.90625 L 9.90625 -1.0625 L 9.671875 -0.6875 L 9.375 -0.15625 L 8.921875 0.15625 L 6.78125 0.078125 Z M 18.75 -18.21875 L 21.03125 -18.21875 L 21.484375 -18.59375 L 21.5625 -19.65625 L 21.484375 -20.265625 L 21.5625 -20.875 L 21.5625 -22.859375 L 21.640625 -23.390625 L 21.640625 -24.6875 L 21.796875 -25.296875 L 21.71875 -27.125 L 21.796875 -30.03125 L 21.875 -32.765625 L 21.796875 -34.515625 L 21.1875 -34.296875 L 20.875 -33.296875 L 20.5 -32.078125 L 20.265625 -31.3125 L 19.890625 -30.09375 L 19.578125 -29.484375 L 19.28125 -28.734375 L 19.203125 -28.1875 L 18.890625 -27.65625 L 18.671875 -26.96875 L 18.4375 -26.4375 L 18.21875 -25.75 L 17.75 -24.078125 L 17.671875 -23.546875 L 17.296875 -22.40625 L 17 -21.875 L 16.609375 -20.578125 L 16.453125 -20.046875 L 16.3125 -19.359375 L 16.078125 -18.828125 L 16.609375 -18.359375 L 17.21875 -18.359375 L 18.0625 -18.28125 Z M 18.75 -18.21875 "/></g></g><g style="fill:#ffffff;fill-opacity:1;"><g transform="translate(256.023097, 189.096894)"><path style="stroke:none" d="M 11.890625 0.078125 L 10.671875 -0.078125 L 10.0625 -0.078125 L 8.84375 0 L 5.71875 0 L 5.265625 -0.078125 L 4.640625 -0.078125 L 3.5 -0.15625 L 2.8125 -0.234375 L 2.28125 -0.6875 L 2.359375 -1.296875 L 2.515625 -2.0625 L 2.515625 -3.203125 L 2.75 -3.8125 L 2.890625 -4.5 L 3.046875 -5.5625 L 3.203125 -6.484375 L 3.28125 -7.015625 L 3.578125 -8 L 3.734375 -9.0625 L 3.8125 -10.140625 L 3.96875 -10.59375 L 4.03125 -11.125 L 4.1875 -11.65625 L 4.265625 -12.265625 L 4.5 -12.875 L 4.578125 -13.328125 L 4.71875 -14.484375 L 4.875 -15.703125 L 5.1875 -16.453125 L 5.109375 -17.21875 L 5.328125 -18.28125 L 5.5625 -18.890625 L 5.71875 -19.515625 L 5.796875 -19.96875 L 5.796875 -20.5 L 6.015625 -21.484375 L 6.171875 -22.484375 L 6.25 -23.015625 L 6.484375 -23.921875 L 6.484375 -24.390625 L 6.546875 -24.6875 L 6.703125 -25.453125 L 7.015625 -26.515625 L 7.09375 -27.578125 L 7.234375 -27.96875 L 7.546875 -28.953125 L 7.625 -29.5625 L 7.921875 -30.640625 L 8.078125 -31.703125 L 8.078125 -32.3125 L 8.15625 -32.84375 L 8.3125 -33.375 L 8.53125 -34.0625 L 8.609375 -34.75 L 8.6875 -35.65625 L 8.84375 -36.203125 L 8.921875 -36.65625 L 9.140625 -37.265625 L 9.21875 -37.953125 L 9.296875 -38.40625 L 9.296875 -38.9375 L 9.453125 -39.390625 L 9.53125 -39.859375 L 9.671875 -41 L 9.984375 -42.0625 L 10.140625 -44.5 L 10.359375 -45.640625 L 10.59375 -46.640625 L 11.046875 -48.46875 L 11.28125 -49.453125 L 11.28125 -50.0625 L 11.359375 -50.59375 L 11.4375 -51.734375 L 11.578125 -52.421875 L 11.8125 -52.8125 L 12.5 -53.421875 L 13.5625 -53.5 L 15.46875 -53.5 L 15.921875 -53.421875 L 16.765625 -53.5 L 18.359375 -53.5 L 22.09375 -53.34375 L 25.140625 -53.421875 L 26.21875 -53.34375 L 28.5 -53.34375 L 29.34375 -53.1875 L 30.09375 -53.109375 L 31.25 -52.8125 L 32.15625 -52.578125 L 32.921875 -52.203125 L 33.609375 -51.890625 L 34.4375 -51.203125 L 35.4375 -50.140625 L 36.125 -49.53125 L 36.421875 -49.078125 L 36.65625 -48.6875 L 36.953125 -47.78125 L 37.421875 -46.71875 L 37.484375 -46.109375 L 37.484375 -45.5625 L 37.640625 -44.953125 L 37.796875 -44.046875 L 37.71875 -42.90625 L 37.640625 -42.4375 L 37.640625 -41.90625 L 37.5625 -41.453125 L 37.421875 -40.921875 L 37.421875 -40.46875 L 37.265625 -39.46875 L 37.1875 -38.9375 L 36.875 -37.953125 L 36.953125 -37.484375 L 36.8125 -36.953125 L 36.734375 -36.734375 L 36.65625 -36.203125 L 36.5 -35.734375 L 36.34375 -35.203125 L 36.125 -34.75 L 35.8125 -34.0625 L 35.28125 -33.21875 L 34.75 -32.46875 L 34.140625 -31.546875 L 33.140625 -30.5625 L 32.765625 -30.25 L 32.390625 -29.796875 L 32 -29.484375 L 31.46875 -29.1875 L 30.5625 -28.65625 L 29.640625 -28.265625 L 28.953125 -27.96875 L 28.953125 -27.515625 L 29.71875 -27.203125 L 30.5625 -26.75 L 31.25 -26.4375 L 32.15625 -25.828125 L 32.609375 -25.296875 L 33.078125 -24.84375 L 33.53125 -24.078125 L 33.828125 -23.546875 L 34.21875 -22.703125 L 34.375 -21.953125 L 34.59375 -21.484375 L 34.75 -20.5 L 35.046875 -19.515625 L 34.984375 -18.515625 L 35.125 -17.75 L 35.046875 -17.0625 L 35.046875 -16.078125 L 34.984375 -15.546875 L 34.828125 -14.40625 L 34.59375 -13.265625 L 34.375 -12.265625 L 34.296875 -11.734375 L 34.0625 -10.671875 L 33.90625 -10.21875 L 33.765625 -9.671875 L 33.609375 -9.21875 L 33.453125 -8.6875 L 32.234375 -6.25 L 31.546875 -5.328125 L 31.09375 -4.5 L 30.703125 -4.109375 L 30.171875 -3.65625 L 29.875 -3.28125 L 29.265625 -2.890625 L 28.8125 -2.671875 L 28.421875 -2.28125 L 27.890625 -1.984375 L 27.515625 -1.671875 L 27.125 -1.453125 L 26.59375 -1.21875 L 25.984375 -0.921875 L 25.140625 -0.6875 L 24.53125 -0.453125 L 24.078125 -0.375 L 23.390625 -0.3125 L 22.40625 -0.078125 L 21.953125 -0.15625 L 20.796875 0.078125 L 19.65625 0 L 19.125 -0.078125 L 18.59375 0 L 16.53125 0.078125 L 15.546875 0 L 14.9375 -0.078125 L 13.875 -0.078125 L 13.265625 0 L 13.03125 0 Z M 20.5 -33.078125 L 21.5625 -33.140625 L 22.484375 -33.296875 L 23.09375 -33.6875 L 23.921875 -34.21875 L 24.84375 -34.984375 L 25.21875 -35.65625 L 25.828125 -36.421875 L 26.21875 -37.484375 L 26.4375 -38.40625 L 26.59375 -38.859375 L 26.671875 -39.46875 L 26.96875 -40.234375 L 26.90625 -41.078125 L 26.828125 -41.609375 L 26.75 -42.515625 L 26.296875 -43.4375 L 26.0625 -43.8125 L 25.453125 -44.34375 L 25 -44.421875 L 24.3125 -44.578125 L 22.9375 -44.734375 L 21.03125 -44.734375 L 20.421875 -44.578125 L 20.421875 -44.046875 L 20.1875 -43.359375 L 20.125 -42.671875 L 20.046875 -42.140625 L 19.8125 -41.21875 L 19.8125 -40.6875 L 19.578125 -39.703125 L 19.515625 -39.171875 L 19.359375 -38.71875 L 18.828125 -34.984375 L 18.671875 -34.375 L 18.59375 -33.609375 L 18.59375 -33.140625 L 19.578125 -33.140625 Z M 15.625 -9.75 L 16.3125 -9.984375 L 18.21875 -9.75 L 19.65625 -9.75 L 20.1875 -9.984375 L 20.734375 -9.984375 L 21.265625 -10.21875 L 21.953125 -10.75 L 22.484375 -11.203125 L 22.9375 -11.890625 L 23.015625 -12.5 L 23.390625 -13.328125 L 23.546875 -13.875 L 23.625 -14.484375 L 24 -15.46875 L 24.15625 -16.84375 L 24.078125 -18.140625 L 24.15625 -19.125 L 23.46875 -20.953125 L 22.625 -21.71875 L 21.1875 -22.25 L 20.421875 -22.40625 L 19.8125 -22.5625 L 18.75 -22.5625 L 17.90625 -22.625 L 16.84375 -22.625 L 16.609375 -21.953125 L 16.453125 -20.578125 L 16.3125 -19.96875 L 16.15625 -19.65625 L 16 -18.515625 L 15.84375 -17.984375 L 15.84375 -17.453125 L 15.703125 -17 L 15.625 -16.390625 L 15.46875 -15.3125 L 15.3125 -14.78125 L 15.09375 -13.640625 L 15.09375 -13.109375 L 14.9375 -12.046875 L 14.78125 -11.4375 L 14.703125 -10.828125 L 14.40625 -9.828125 Z M 15.625 -9.75 "/></g></g><g style="fill:#ffffff;fill-opacity:1;"><g transform="translate(292.674942, 189.096894)"><path style="stroke:none" d="M 10.515625 0.15625 L 9.984375 0.078125 L 7.765625 0.078125 L 6.703125 -0.078125 L 6.09375 -0.078125 L 5.5625 0 L 4.71875 -0.078125 L 4.1875 -0.15625 L 3.578125 -0.078125 L 2.96875 -0.234375 L 2.359375 -0.765625 L 2.28125 -1.90625 L 2.671875 -2.96875 L 2.75 -4.109375 L 2.890625 -4.640625 L 3.046875 -5.71875 L 3.125 -6.328125 L 3.359375 -7.46875 L 3.421875 -8 L 3.578125 -8.609375 L 3.65625 -9.140625 L 3.96875 -10.140625 L 3.890625 -10.59375 L 4.109375 -11.96875 L 4.34375 -12.796875 L 4.5 -13.484375 L 4.71875 -14.171875 L 4.875 -14.859375 L 5.03125 -15.78125 L 5.03125 -16.3125 L 5.1875 -16.84375 L 5.265625 -17.296875 L 5.40625 -17.828125 L 5.328125 -18.359375 L 5.875 -20.046875 L 6.015625 -21.1875 L 6.015625 -21.640625 L 6.171875 -22.171875 L 6.25 -22.703125 L 6.328125 -23.171875 L 6.484375 -24.234375 L 6.484375 -25.296875 L 6.78125 -26.359375 L 6.78125 -26.90625 L 6.9375 -27.96875 L 7.234375 -28.578125 L 7.234375 -29.5625 L 7.390625 -30.484375 L 7.625 -31.46875 L 8 -32.53125 L 8.234375 -34.140625 L 8.234375 -35.203125 L 8.453125 -35.734375 L 8.609375 -36.8125 L 8.6875 -37.265625 L 8.609375 -37.796875 L 8.921875 -38.71875 L 8.984375 -39.171875 L 9.21875 -40.15625 L 9.296875 -40.6875 L 9.609375 -41.6875 L 9.53125 -42.21875 L 9.609375 -42.828125 L 9.671875 -43.8125 L 9.828125 -44.203125 L 9.984375 -45.265625 L 10.21875 -46.25 L 10.28125 -46.71875 L 10.4375 -47.171875 L 10.515625 -48.078125 L 10.671875 -48.921875 L 10.96875 -49.765625 L 11.125 -50.90625 L 11.28125 -51.359375 L 11.359375 -51.890625 L 11.890625 -52.65625 L 12.421875 -52.890625 L 12.875 -53.1875 L 13.40625 -53.265625 L 14.5625 -53.34375 L 15.234375 -53.265625 L 16.3125 -53.265625 L 16.84375 -53.34375 L 20.875 -53.34375 L 21.40625 -53.421875 L 22.25 -53.1875 L 22.5625 -52.421875 L 22.484375 -51.96875 L 22.484375 -50.984375 L 22.328125 -50.75 L 22.25 -49.90625 L 22.328125 -49.453125 L 22.09375 -49.15625 L 22.09375 -48.46875 L 21.875 -48.078125 L 21.71875 -47.015625 L 21.40625 -46.328125 L 21.40625 -45.71875 L 21.34375 -45.265625 L 21.34375 -44.734375 L 21.265625 -44.28125 L 20.875 -42.296875 L 20.734375 -41.453125 L 20.578125 -41 L 20.421875 -40.078125 L 20.34375 -39.546875 L 20.265625 -38.640625 L 20.046875 -37.109375 L 19.8125 -36.203125 L 19.578125 -35.203125 L 19.515625 -34.828125 L 19.28125 -33.765625 L 19.046875 -33.078125 L 19.046875 -32.390625 L 18.96875 -31.859375 L 18.890625 -31.25 L 18.890625 -30.703125 L 18.75 -29.71875 L 18.515625 -28.953125 L 18.140625 -26.671875 L 17.828125 -25.609375 L 17.609375 -25.078125 L 17.609375 -24.46875 L 17.375 -23.46875 L 17.21875 -22.484375 L 17.0625 -21.5625 L 16.765625 -20.5 L 16.765625 -19.890625 L 16.453125 -18.828125 L 16.453125 -18.21875 L 16.3125 -17.140625 L 16.234375 -16.765625 L 16.234375 -15.703125 L 15.84375 -14.9375 L 15.921875 -14.09375 L 15.703125 -12.953125 L 15.625 -12.34375 L 15.3125 -11.359375 L 15.3125 -10.75 L 15.09375 -9.671875 L 14.9375 -8.609375 L 14.78125 -7.625 L 14.78125 -7.09375 L 14.5625 -6.25 L 14.25 -4.421875 L 14.015625 -3.421875 L 13.875 -2.359375 L 13.640625 -1.375 L 13.5625 -0.765625 L 13.328125 -0.078125 L 12.5 0.15625 Z M 10.515625 0.15625 "/></g></g><g style="fill:#ffffff;fill-opacity:1;"><g transform="translate(312.715344, 189.096894)"><path style="stroke:none" d="M 9.453125 0.234375 L 8.765625 0 L 8.234375 0 L 7.546875 -0.609375 L 7.703125 -1.75 L 7.765625 -3.359375 L 8.3125 -4.953125 L 8.453125 -5.484375 L 8.53125 -6.625 L 8.6875 -7.09375 L 8.765625 -8.15625 L 8.765625 -8.6875 L 9.140625 -9.75 L 9.21875 -10.28125 L 9.140625 -10.890625 L 9.53125 -12.5 L 9.53125 -13.109375 L 9.75 -14.015625 L 9.984375 -15.171875 L 10.140625 -15.703125 L 10.21875 -16.234375 L 10.359375 -17.21875 L 10.515625 -17.671875 L 10.59375 -18.75 L 10.96875 -19.515625 L 10.828125 -20.265625 L 10.890625 -20.796875 L 11.046875 -21.34375 L 11.4375 -22.40625 L 11.734375 -23.546875 L 11.890625 -24.078125 L 11.734375 -24.609375 L 12.109375 -25.53125 L 12.265625 -25.984375 L 12.265625 -27.046875 L 12.5 -27.8125 L 12.5 -28.5 L 12.65625 -29.03125 L 12.953125 -29.484375 L 12.953125 -30.03125 L 13.109375 -30.484375 L 13.328125 -31.625 L 13.265625 -32.15625 L 13.640625 -33 L 13.640625 -33.765625 L 13.796875 -34.140625 L 13.796875 -34.75 L 13.875 -35.28125 L 14.015625 -35.8125 L 14.40625 -37.03125 L 14.484375 -37.484375 L 14.484375 -37.953125 L 14.5625 -38.484375 L 14.5625 -38.9375 L 14.78125 -39.9375 L 14.9375 -40.46875 L 15.09375 -41.609375 L 15.171875 -42.828125 L 11.046875 -42.828125 L 9.984375 -42.90625 L 9.453125 -42.828125 L 8.765625 -42.828125 L 8 -42.90625 L 7.390625 -42.90625 L 6.703125 -43.125 L 6.484375 -43.8125 L 6.625 -44.734375 L 6.859375 -45.34375 L 6.859375 -45.953125 L 6.78125 -46.484375 L 7.09375 -47.546875 L 7.234375 -48.015625 L 7.3125 -49.078125 L 7.625 -50.0625 L 7.84375 -50.515625 L 7.84375 -51.59375 L 7.921875 -52.046875 L 8.3125 -52.890625 L 8.984375 -53.421875 L 9.53125 -53.5 L 11.5 -53.5 L 11.890625 -53.421875 L 12.421875 -53.421875 L 12.953125 -53.5 L 18.59375 -53.5 L 19.125 -53.421875 L 20.796875 -53.421875 L 25.6875 -53.5 L 26.828125 -53.421875 L 28.421875 -53.5 L 29.109375 -53.421875 L 33.828125 -53.421875 L 34.90625 -53.34375 L 35.59375 -53.1875 L 35.734375 -52.578125 L 35.734375 -52.125 L 35.65625 -51.59375 L 35.515625 -50.984375 L 35.515625 -50.453125 L 35.4375 -49.984375 L 35.28125 -49.453125 L 35.28125 -49 L 35.125 -48.078125 L 34.984375 -47.546875 L 34.90625 -47.09375 L 34.828125 -46.171875 L 34.515625 -45.1875 L 34.375 -44.65625 L 34.296875 -43.59375 L 33.984375 -42.90625 L 33.21875 -42.828125 L 32.53125 -42.90625 L 31.625 -42.90625 L 30.9375 -42.828125 L 30.171875 -42.828125 L 26.96875 -42.90625 L 26.296875 -42.828125 L 26.140625 -42.296875 L 26.21875 -41.828125 L 25.984375 -41.296875 L 25.984375 -40.84375 L 25.828125 -40.390625 L 25.6875 -39.390625 L 25.609375 -38.859375 L 25.296875 -37.484375 L 25 -36.875 L 25.140625 -36.5 L 24.765625 -35.4375 L 24.46875 -34.4375 L 24.46875 -33.984375 L 24.390625 -33.078125 L 24.3125 -32.609375 L 24.3125 -32.078125 L 23.921875 -31.171875 L 23.78125 -30.03125 L 23.625 -29.484375 L 23.390625 -28.421875 L 23.171875 -27.96875 L 23.171875 -27.4375 L 23.09375 -26.4375 L 22.859375 -25.53125 L 22.5625 -25 L 22.484375 -23.921875 L 22.328125 -23.46875 L 22.328125 -23.015625 L 22.09375 -21.953125 L 21.875 -20.796875 L 21.71875 -20.125 L 21.71875 -19.359375 L 21.640625 -18.890625 L 21.484375 -18.4375 L 21.40625 -17.90625 L 21.109375 -17 L 21.03125 -16.453125 L 20.953125 -16 L 21.03125 -15.46875 L 20.796875 -14.40625 L 20.578125 -13.1875 L 20.265625 -12.1875 L 20.1875 -11.65625 L 19.96875 -10.671875 L 19.578125 -9.0625 L 19.4375 -8.453125 L 19.203125 -7.390625 L 19.28125 -6.78125 L 18.890625 -5.109375 L 18.4375 -2.96875 L 18.28125 -1.90625 L 18.0625 -0.84375 L 17.90625 -0.375 L 17 0 L 10.359375 0 Z M 9.453125 0.234375 "/></g></g><g style="fill:#ffffff;fill-opacity:1;"><g transform="translate(342.433056, 189.096894)"><path style="stroke:none" d="M 16.609375 0.15625 L 15.921875 -0.078125 L 6.328125 -0.078125 L 5.40625 -0.3125 L 4.421875 -0.078125 L 3.890625 -0.078125 L 3.359375 0 L 2.8125 -0.078125 L 1.75 -0.078125 L 0.921875 -0.15625 L 0.3125 -0.234375 L -0.078125 -0.984375 L -0.3125 -1.671875 L -0.078125 -3.28125 L 0 -3.734375 L 0 -5.484375 L 0.234375 -6.328125 L 0.453125 -7.3125 L 1.53125 -8.921875 L 1.984375 -9.671875 L 2.28125 -10.140625 L 2.4375 -10.515625 L 2.75 -10.890625 L 3.203125 -11.65625 L 3.96875 -12.953125 L 4.34375 -13.71875 L 4.71875 -14.625 L 5.03125 -15.234375 L 5.328125 -15.703125 L 5.5625 -16.234375 L 6.09375 -17.140625 L 6.40625 -17.53125 L 6.546875 -17.984375 L 8.15625 -20.421875 L 8.6875 -21.40625 L 9.296875 -22.25 L 9.453125 -22.625 L 9.828125 -23.703125 L 10.21875 -24.390625 L 10.96875 -25.6875 L 13.1875 -29.5625 L 13.640625 -30.484375 L 13.875 -30.859375 L 14.25 -31.78125 L 14.484375 -32.234375 L 15.171875 -33 L 15.3125 -33.453125 L 16 -34.75 L 16.453125 -35.515625 L 16.6875 -35.96875 L 17.140625 -36.8125 L 17.453125 -37.265625 L 17.90625 -38.171875 L 18.140625 -38.5625 L 18.4375 -39.25 L 18.890625 -39.78125 L 19.125 -40.234375 L 19.734375 -41.15625 L 20.421875 -42.296875 L 20.421875 -42.984375 L 19.8125 -43.125 L 18.890625 -43.0625 L 13.796875 -43.0625 L 12.578125 -43.125 L 11.96875 -43.125 L 10.75 -43.203125 L 9.296875 -43.125 L 8.6875 -43.203125 L 8.078125 -43.125 L 7.015625 -43.203125 L 6.78125 -43.734375 L 6.9375 -44.125 L 6.9375 -45.109375 L 7.015625 -45.640625 L 7.15625 -46.109375 L 7.15625 -46.5625 L 7.234375 -47.09375 L 7.46875 -48.078125 L 7.546875 -48.546875 L 7.703125 -49.078125 L 7.765625 -49.53125 L 7.765625 -50.0625 L 8.078125 -51.0625 L 8.375 -52.28125 L 8.84375 -53.03125 L 9.296875 -53.265625 L 12.5 -53.265625 L 13.796875 -53.109375 L 21.265625 -53.109375 L 21.953125 -52.96875 L 25.53125 -52.96875 L 27.96875 -53.109375 L 28.578125 -53.03125 L 29.71875 -52.96875 L 30.25 -53.03125 L 30.703125 -53.03125 L 31.78125 -52.890625 L 32.390625 -52.8125 L 32.84375 -52.578125 L 33.296875 -52.28125 L 33.453125 -50.984375 L 33.53125 -50.375 L 33.296875 -49.6875 L 33.21875 -49 L 33.21875 -48.015625 L 33.078125 -47.015625 L 33 -46.40625 L 32.84375 -45.640625 L 32.84375 -44.890625 L 32.765625 -44.34375 L 32.3125 -43.4375 L 31.390625 -41.53125 L 31.171875 -40.609375 L 30.9375 -40.078125 L 30.703125 -39.703125 L 30.09375 -38.78125 L 29.953125 -38.328125 L 29.484375 -37.484375 L 29.265625 -37.03125 L 29.1875 -36.5 L 28.8125 -35.890625 L 28.65625 -35.4375 L 27.515625 -33.140625 L 26.90625 -32.234375 L 26.75 -31.78125 L 26.4375 -31.390625 L 25.6875 -30.03125 L 25.453125 -29.5625 L 25.140625 -29.109375 L 25 -28.65625 L 24.53125 -27.65625 L 24.234375 -27.125 L 24.078125 -26.671875 L 23.78125 -26.21875 L 23.546875 -25.75 L 23.3125 -25.078125 L 22.9375 -24.46875 L 22.625 -24 L 22.25 -23.625 L 22.015625 -23.171875 L 21.71875 -22.703125 L 21.484375 -22.25 L 21.1875 -21.796875 L 20.953125 -21.34375 L 20.796875 -20.875 L 20.421875 -20.421875 L 20.265625 -19.96875 L 19.515625 -18.59375 L 18.828125 -17.21875 L 18.28125 -16.3125 L 17.984375 -15.84375 L 17.375 -15.015625 L 17.21875 -14.5625 L 16.6875 -13.640625 L 16.453125 -13.1875 L 16.234375 -12.65625 L 15.78125 -11.734375 L 15.46875 -11.28125 L 15.171875 -10.59375 L 15.703125 -10.359375 L 17.375 -10.21875 L 17.90625 -10.140625 L 19.515625 -10.140625 L 20.046875 -10.28125 L 20.578125 -10.140625 L 21.109375 -10.140625 L 22.171875 -10.0625 L 22.78125 -10.0625 L 23.921875 -10.140625 L 24.46875 -10.140625 L 25 -10.0625 L 26.140625 -9.984375 L 26.671875 -9.90625 L 28.125 -9.90625 L 28.8125 -9.53125 L 28.8125 -8.53125 L 28.578125 -7.15625 L 28.578125 -6.625 L 28.421875 -6.171875 L 28.421875 -5.71875 L 28.265625 -5.1875 L 28.1875 -4.265625 L 28.046875 -3.28125 L 27.890625 -2.75 L 27.8125 -2.28125 L 27.65625 -1.828125 L 27.578125 -1.296875 L 27.4375 -0.6875 L 27.359375 -0.15625 L 26.59375 -0.078125 L 17.140625 -0.078125 Z M 16.609375 0.15625 "/></g></g><g clip-rule="nonzero" clip-path="url(#c88e3b6fb2)"><path style=" stroke:none;fill-rule:nonzero;fill:#00d7ff;fill-opacity:1;" d="M 27.855469 169.796875 C 27.261719 169.300781 8.621094 157.019531 6.78125 156.046875 C 4.476562 154.820312 2.507812 156.144531 2.351562 158.832031 C 2.316406 159.457031 2.515625 189.453125 2.527344 191.476562 C 2.277344 195.429688 3.460938 198.855469 6.253906 201.699219 C 7.605469 203.085938 32.496094 218.746094 32.523438 218.695312 C 32.933594 218.324219 33.085938 185.363281 32.808594 183.507812 C 33.519531 178.085938 32.175781 173.398438 27.855469 169.796875 Z M 27.855469 169.796875 "/></g><g clip-rule="nonzero" clip-path="url(#2bfa20301a)"><path style=" stroke:none;fill-rule:nonzero;fill:#009cdf;fill-opacity:1;" d="M 65.566406 217.359375 C 65.601562 212.214844 65.679688 172.808594 65.65625 172.414062 C 65.480469 167.949219 63.664062 164.253906 59.964844 161.785156 C 53.589844 157.535156 39.554688 148.800781 39.089844 148.617188 C 38.550781 148.375 38.035156 148.273438 37.5625 148.292969 C 37.132812 148.300781 36.753906 148.410156 36.429688 148.621094 C 35.582031 149.117188 35.015625 150.136719 34.933594 151.53125 C 34.902344 152.050781 35.011719 216.695312 34.984375 219.144531 C 34.972656 220.132812 35.179688 220.71875 36.167969 221.296875 C 39.957031 223.523438 43.679688 225.878906 47.34375 228.308594 C 49.496094 229.730469 51.449219 229.695312 53.566406 228.300781 C 56.726562 226.21875 59.871094 224.082031 63.183594 222.269531 C 65.320312 221.097656 66.1875 219.6875 65.566406 217.359375 Z M 65.566406 217.359375 "/></g><path style=" stroke:none;fill-rule:nonzero;fill:#5e17eb;fill-opacity:1;" d="M 98.425781 156.492188 C 98.480469 155.664062 98.484375 154.855469 98.425781 154.066406 C 98.425781 154.011719 98.425781 153.953125 98.425781 153.898438 C 98.136719 148.960938 95.789062 145.21875 91.714844 142.53125 C 87.210938 139.558594 82.742188 136.53125 78.125 133.742188 C 76.238281 132.605469 74.417969 131.300781 72.308594 130.507812 C 72.296875 130.5 72.277344 130.488281 72.265625 130.484375 C 71.625 130.140625 71.007812 130.003906 70.449219 130.035156 C 69.550781 129.976562 68.921875 130.300781 68.542969 131.085938 C 68.144531 131.636719 67.886719 132.375 67.835938 133.269531 C 67.820312 133.511719 68.179688 213.226562 68.097656 218.546875 C 68.53125 219.210938 68.980469 218.773438 69.371094 218.523438 C 75.378906 214.65625 81.382812 210.773438 87.382812 206.894531 C 93.160156 204.035156 97.808594 200.203125 98.382812 193.238281 C 98.617188 190.414062 98.425781 159.382812 98.425781 156.492188 Z M 98.425781 156.492188 "/><g style="fill:#ffffff;fill-opacity:1;"><g transform="translate(101.250379, 226.395965)"><path style="stroke:none" d="M 9.007812 0 L 13.742188 0 C 14.234375 0 14.535156 -0.152344 14.535156 -0.453125 L 14.535156 -0.53125 C 14.535156 -1.25 13.058594 -1.285156 13.058594 -2.648438 L 13.058594 -25.25 L 18.285156 -25.25 C 20.175781 -25.25 20.667969 -21.160156 21.765625 -21.160156 L 22.144531 -21.160156 C 22.484375 -21.160156 22.710938 -21.386719 22.597656 -21.878906 L 21.765625 -26.042969 C 21.652344 -26.574219 21.386719 -26.875 20.78125 -26.875 L 1.96875 -26.875 C 1.363281 -26.875 1.097656 -26.574219 1.023438 -26.042969 L 0.417969 -21.917969 C 0.339844 -21.386719 0.53125 -21.160156 0.910156 -21.160156 L 1.25 -21.160156 C 2.347656 -21.160156 2.574219 -25.25 4.503906 -25.25 L 9.652344 -25.25 L 9.652344 -2.648438 C 9.652344 -1.285156 8.253906 -1.25 8.253906 -0.53125 L 8.253906 -0.453125 C 8.253906 -0.152344 8.554688 0 9.007812 0 Z M 9.007812 0 "/></g></g><g style="fill:#ffffff;fill-opacity:1;"><g transform="translate(121.11975, 226.395965)"><path style="stroke:none" d="M 10.828125 -18.546875 C 8.480469 -18.546875 6.738281 -17.261719 5.90625 -14.839844 L 5.90625 -17.867188 C 5.90625 -18.433594 5.640625 -18.738281 4.921875 -18.398438 L 2.042969 -17.109375 C 1.703125 -16.921875 1.476562 -16.695312 1.476562 -16.429688 L 1.476562 -16.351562 C 1.476562 -15.632812 2.992188 -15.597656 2.992188 -14.15625 L 2.992188 -2.648438 C 2.992188 -1.324219 1.589844 -1.285156 1.589844 -0.605469 L 1.589844 -0.453125 C 1.589844 -0.152344 1.855469 0 2.347656 0 L 7.039062 0 C 7.53125 0 7.796875 -0.152344 7.796875 -0.453125 L 7.796875 -0.605469 C 7.796875 -1.285156 6.207031 -1.324219 6.207031 -2.648438 L 6.207031 -11.28125 C 6.207031 -14.121094 7.34375 -16.503906 9.425781 -16.503906 C 11.773438 -16.503906 10.828125 -13.855469 12.792969 -13.855469 C 13.855469 -13.855469 14.308594 -14.648438 14.308594 -15.632812 C 14.308594 -17.222656 13.097656 -18.546875 10.828125 -18.546875 Z M 10.828125 -18.546875 "/></g></g><g style="fill:#ffffff;fill-opacity:1;"><g transform="translate(135.312504, 226.395965)"><path style="stroke:none" d="M 16.957031 -3.027344 L 16.203125 -10.5625 C 15.710938 -15.558594 12.90625 -18.546875 8.253906 -18.546875 C 4.125 -18.546875 1.550781 -16.429688 1.550781 -14.421875 C 1.550781 -13.550781 2.121094 -13.023438 3.027344 -13.023438 C 4.921875 -13.023438 4.316406 -17.335938 8.253906 -17.335938 C 11.28125 -17.335938 12.492188 -14.914062 12.90625 -10.449219 L 12.984375 -9.425781 C 11.960938 -10.371094 10.335938 -10.941406 8.328125 -10.941406 C 4.390625 -10.941406 1.363281 -8.972656 1.402344 -5.335938 C 1.402344 -1.703125 4.277344 0.378906 8.441406 0.378906 C 11.203125 0.378906 13.023438 -0.679688 13.890625 -2.269531 C 14.042969 -0.1875 14.953125 0.226562 16.65625 0.226562 C 18.054688 0.226562 19.078125 0 19.078125 -0.566406 C 19.078125 -1.515625 17.1875 -0.679688 16.957031 -3.027344 Z M 9.273438 -0.832031 C 6.546875 -0.832031 4.730469 -3.027344 4.730469 -5.792969 C 4.730469 -8.136719 6.511719 -9.726562 9.085938 -9.726562 C 11.316406 -9.726562 12.871094 -8.480469 13.25 -6.699219 L 13.398438 -4.996094 C 13.476562 -2.6875 11.808594 -0.832031 9.273438 -0.832031 Z M 9.273438 -0.832031 "/></g></g><g style="fill:#ffffff;fill-opacity:1;"><g transform="translate(154.349754, 226.395965)"><path style="stroke:none" d="M 18.851562 -2.648438 L 18.851562 -27.746094 C 18.851562 -28.390625 18.472656 -28.617188 17.679688 -28.316406 L 14.613281 -27.292969 C 14.269531 -27.140625 14.042969 -26.953125 14.042969 -26.648438 L 14.042969 -26.574219 C 14.042969 -25.890625 15.632812 -25.929688 15.632812 -24.339844 L 15.632812 -16.089844 C 14.347656 -17.5625 12.453125 -18.546875 10.144531 -18.546875 C 5.109375 -18.546875 1.285156 -14.648438 1.285156 -9.121094 C 1.285156 -3.367188 5.414062 0.378906 10.03125 0.378906 C 12.265625 0.378906 14.496094 -0.605469 15.785156 -2.5 L 15.859375 -0.605469 C 15.898438 -0.265625 16.125 0 16.503906 0 L 19.683594 0 C 20.0625 0 20.25 -0.152344 20.25 -0.417969 L 20.25 -0.53125 C 20.25 -1.171875 18.851562 -1.285156 18.851562 -2.648438 Z M 10.828125 -0.871094 C 7.039062 -0.910156 4.464844 -5.074219 4.542969 -10.257812 C 4.582031 -14.496094 6.851562 -17.335938 10.105469 -17.335938 C 13.210938 -17.335938 15.632812 -14.460938 15.632812 -12.039062 L 15.632812 -8.253906 L 15.671875 -6.320312 L 15.632812 -6.320312 C 15.632812 -2.6875 12.984375 -0.871094 10.828125 -0.871094 Z M 10.828125 -0.871094 "/></g></g><g style="fill:#ffffff;fill-opacity:1;"><g transform="translate(175.847115, 226.395965)"><path style="stroke:none" d="M 4.542969 -21.765625 C 6.019531 -21.765625 7.003906 -22.710938 7.003906 -24.113281 C 7.003906 -25.511719 6.019531 -26.496094 4.542969 -26.496094 C 2.992188 -26.496094 2.007812 -25.511719 2.007812 -24.113281 C 2.007812 -22.710938 2.992188 -21.765625 4.542969 -21.765625 Z M 2.347656 0 L 7.003906 0 C 7.457031 0 7.796875 -0.1875 7.796875 -0.492188 L 7.796875 -0.644531 C 7.796875 -1.363281 6.285156 -1.363281 6.285156 -2.6875 L 6.285156 -17.867188 C 6.285156 -18.398438 5.90625 -18.777344 5.109375 -18.398438 L 2.195312 -16.957031 C 1.855469 -16.769531 1.628906 -16.65625 1.628906 -16.390625 L 1.628906 -16.316406 C 1.628906 -15.746094 2.992188 -15.445312 2.992188 -13.96875 L 2.992188 -2.6875 C 2.992188 -1.363281 1.628906 -1.363281 1.628906 -0.644531 L 1.628906 -0.492188 C 1.628906 -0.1875 1.894531 0 2.347656 0 Z M 2.347656 0 "/></g></g><g style="fill:#ffffff;fill-opacity:1;"><g transform="translate(185.044035, 226.395965)"><path style="stroke:none" d="M 19.457031 -2.726562 L 19.039062 -10.183594 C 18.660156 -16.050781 15.558594 -18.546875 11.847656 -18.546875 C 9.238281 -18.546875 7.039062 -17.1875 5.941406 -15.066406 L 5.941406 -17.828125 C 5.941406 -18.398438 5.601562 -18.777344 4.882812 -18.398438 L 2.042969 -17.035156 C 1.664062 -16.882812 1.4375 -16.730469 1.4375 -16.464844 L 1.4375 -16.351562 C 1.4375 -15.671875 3.027344 -15.746094 3.027344 -14.121094 L 3.027344 -2.648438 C 3.027344 -1.324219 1.550781 -1.324219 1.550781 -0.605469 L 1.550781 -0.453125 C 1.550781 -0.152344 1.855469 0.0390625 2.308594 0.0390625 L 7.039062 0.0390625 C 7.53125 0.0390625 7.835938 -0.152344 7.835938 -0.453125 L 7.835938 -0.605469 C 7.835938 -1.324219 6.320312 -1.324219 6.320312 -2.648438 L 6.320312 -11.847656 C 6.320312 -14.839844 8.253906 -17.070312 11.054688 -17.070312 C 13.664062 -17.070312 15.519531 -14.875 15.710938 -10.257812 L 16.089844 -2.6875 C 16.164062 -1.324219 14.726562 -1.324219 14.726562 -0.605469 L 14.726562 -0.453125 C 14.726562 -0.152344 15.027344 0.0390625 15.519531 0.0390625 L 20.023438 0.0390625 C 20.515625 0.0390625 20.820312 -0.152344 20.820312 -0.453125 L 20.820312 -0.605469 C 20.820312 -1.324219 19.53125 -1.324219 19.457031 -2.726562 Z M 19.457031 -2.726562 "/></g></g><g style="fill:#ffffff;fill-opacity:1;"><g transform="translate(206.76846, 226.395965)"><path style="stroke:none" d="M 17.5625 -18.167969 C 12.792969 -18.167969 12.378906 -18.546875 9.804688 -18.546875 C 4.769531 -18.546875 1.4375 -15.332031 1.4375 -10.902344 C 1.4375 -6.8125 4.996094 -3.558594 9.539062 -3.558594 C 10.03125 -3.558594 10.484375 -3.597656 10.976562 -3.632812 C 13.550781 -3.40625 15.179688 -1.742188 15.179688 0.679688 C 15.179688 3.21875 13.097656 4.921875 9.992188 4.921875 C 3.671875 4.882812 4.882812 -1.058594 2.535156 -1.058594 C 1.550781 -1.058594 1.136719 -0.378906 1.136719 0.378906 C 1.136719 2.800781 3.9375 6.132812 9.765625 6.132812 C 14.875 6.132812 18.546875 3.976562 18.546875 0.453125 C 18.546875 -1.777344 16.921875 -3.597656 13.628906 -4.316406 C 16.429688 -5.527344 18.167969 -7.988281 18.167969 -11.128906 C 18.167969 -13.058594 17.148438 -15.140625 15.519531 -16.351562 C 16.65625 -16.65625 17.941406 -16.503906 18.625 -17.222656 C 19.078125 -17.601562 18.851562 -18.167969 17.5625 -18.167969 Z M 10.144531 -4.808594 C 7.078125 -4.808594 4.730469 -8.214844 4.730469 -12.265625 C 4.730469 -15.140625 6.472656 -17.335938 9.199219 -17.335938 C 12.566406 -17.335938 14.875 -13.890625 14.875 -9.957031 C 14.875 -7.039062 13.058594 -4.808594 10.144531 -4.808594 Z M 10.144531 -4.808594 "/></g></g><g style="fill:#ffffff;fill-opacity:1;"><g transform="translate(226.865444, 226.395965)"><path style="stroke:none" d=""/></g></g><g style="fill:#ffffff;fill-opacity:1;"><g transform="translate(234.283355, 226.395965)"><path style="stroke:none" d="M 9.007812 0 L 13.742188 0 C 14.234375 0 14.535156 -0.152344 14.535156 -0.453125 L 14.535156 -0.53125 C 14.535156 -1.25 13.058594 -1.285156 13.058594 -2.648438 L 13.058594 -25.25 L 18.285156 -25.25 C 20.175781 -25.25 20.667969 -21.160156 21.765625 -21.160156 L 22.144531 -21.160156 C 22.484375 -21.160156 22.710938 -21.386719 22.597656 -21.878906 L 21.765625 -26.042969 C 21.652344 -26.574219 21.386719 -26.875 20.78125 -26.875 L 1.96875 -26.875 C 1.363281 -26.875 1.097656 -26.574219 1.023438 -26.042969 L 0.417969 -21.917969 C 0.339844 -21.386719 0.53125 -21.160156 0.910156 -21.160156 L 1.25 -21.160156 C 2.347656 -21.160156 2.574219 -25.25 4.503906 -25.25 L 9.652344 -25.25 L 9.652344 -2.648438 C 9.652344 -1.285156 8.253906 -1.25 8.253906 -0.53125 L 8.253906 -0.453125 C 8.253906 -0.152344 8.554688 0 9.007812 0 Z M 9.007812 0 "/></g></g><g style="fill:#ffffff;fill-opacity:1;"><g transform="translate(253.130684, 226.395965)"><path style="stroke:none" d="M 16.65625 -5.335938 C 15.824219 -3.519531 14.042969 -2.042969 11.242188 -2.042969 C 8.175781 -2.042969 5.867188 -4.011719 4.996094 -7.269531 L 15.480469 -10.710938 C 16.617188 -11.089844 17.261719 -11.734375 17.261719 -12.945312 C 17.261719 -15.558594 14.761719 -18.546875 10.21875 -18.546875 C 5.1875 -18.546875 1.285156 -14.574219 1.285156 -9.238281 C 1.285156 -3.332031 5.1875 0.378906 10.070312 0.378906 C 14.800781 0.378906 17.300781 -2.761719 17.753906 -5.035156 C 17.867188 -5.753906 16.996094 -5.867188 16.65625 -5.335938 Z M 9.652344 -17.335938 C 12.265625 -17.335938 14.082031 -14.574219 14.082031 -12.871094 C 14.082031 -12.226562 13.816406 -11.808594 13.171875 -11.546875 L 4.730469 -8.515625 C 4.617188 -9.121094 4.582031 -9.765625 4.582031 -10.449219 C 4.582031 -14.308594 6.585938 -17.335938 9.652344 -17.335938 Z M 9.652344 -17.335938 "/></g></g><g style="fill:#ffffff;fill-opacity:1;"><g transform="translate(271.865165, 226.395965)"><path style="stroke:none" d="M 10.5625 0.378906 C 14.953125 0.378906 17.449219 -2.5 17.980469 -5.261719 C 18.132812 -6.019531 17.1875 -6.132812 16.882812 -5.566406 C 16.011719 -3.671875 14.269531 -2.007812 11.621094 -2.007812 C 7.417969 -2.007812 4.429688 -5.375 4.429688 -10.675781 C 4.429688 -14.421875 6.664062 -17.335938 9.804688 -17.335938 C 14.121094 -17.300781 14.082031 -12.605469 16.277344 -12.53125 C 17.335938 -12.492188 17.792969 -13.097656 17.792969 -13.855469 C 17.792969 -15.972656 14.535156 -18.585938 10.410156 -18.546875 C 5.261719 -18.511719 1.097656 -14.875 1.097656 -9.199219 C 1.097656 -3.710938 5.300781 0.378906 10.5625 0.378906 Z M 10.5625 0.378906 "/></g></g><g style="fill:#ffffff;fill-opacity:1;"><g transform="translate(290.864586, 226.395965)"><path style="stroke:none" d="M 19.191406 -2.726562 L 18.777344 -10.335938 C 18.433594 -16.050781 15.332031 -18.546875 11.621094 -18.546875 C 9.199219 -18.546875 7.15625 -17.375 5.980469 -15.558594 L 6.054688 -27.824219 C 6.054688 -28.390625 5.640625 -28.65625 4.957031 -28.316406 L 1.855469 -26.953125 C 1.515625 -26.800781 1.324219 -26.609375 1.324219 -26.308594 L 1.324219 -26.195312 C 1.324219 -25.589844 2.761719 -25.511719 2.761719 -24.039062 L 2.761719 -2.648438 C 2.761719 -1.324219 1.363281 -1.363281 1.363281 -0.605469 L 1.363281 -0.492188 C 1.363281 -0.1875 1.628906 0 2.082031 0 L 6.8125 0 C 7.269531 0 7.609375 -0.1875 7.609375 -0.492188 L 7.609375 -0.605469 C 7.609375 -1.363281 6.09375 -1.324219 6.09375 -2.648438 L 6.09375 -11.847656 C 6.09375 -14.839844 8.023438 -17.070312 10.828125 -17.070312 C 13.4375 -17.070312 15.292969 -14.875 15.480469 -10.410156 L 15.859375 -2.6875 C 15.9375 -1.363281 14.496094 -1.324219 14.496094 -0.605469 L 14.496094 -0.453125 C 14.496094 -0.152344 14.800781 0 15.253906 0 L 19.796875 0 C 20.25 0 20.554688 -0.152344 20.554688 -0.453125 L 20.554688 -0.605469 C 20.554688 -1.324219 19.304688 -1.363281 19.191406 -2.726562 Z M 19.191406 -2.726562 "/></g></g><g style="fill:#ffffff;fill-opacity:1;"><g transform="translate(312.371616, 226.395965)"><path style="stroke:none" d=""/></g></g><g style="fill:#ffffff;fill-opacity:1;"><g transform="translate(320.887296, 226.395965)"><path style="stroke:none" d=""/></g></g></g></svg>